<svg width="274" height="323" viewBox="0 0 274 323" fill="none" xmlns="http://www.w3.org/2000/svg">
<g clip-path="url(#clip0_4_339)">
<path d="M119.493 306.45L118.621 310.251L118.831 310.479C118.785 310.595 118.738 310.712 118.682 310.828C118.219 311.87 117.69 312.883 117.098 313.858C116.315 315.155 115.44 316.405 114.531 317.632C114.033 318.31 113.52 318.984 113.008 319.654C112.994 319.676 112.978 319.698 112.961 319.719C112.967 319.695 112.975 319.672 112.984 319.649L112.817 319.612L111.852 315.438L111.559 316.098V316.103L111.084 317.195C111.121 317.395 111.158 317.59 111.205 317.785C111.2 317.781 111.2 317.771 111.195 317.767C111.191 317.762 111.191 317.762 111.191 317.757C111.13 317.627 111.065 317.502 111.004 317.372L110.278 319.036L108.805 318.701C108.032 318.301 107.259 317.897 106.49 317.479C95.9893 311.794 86.2664 304.539 79.7209 294.663C77.119 290.729 75.1524 286.411 73.8928 281.868C71.4097 272.842 71.8383 263.129 76.3573 255.065C76.3573 255.064 76.3574 255.064 76.3576 255.063C76.3578 255.062 76.3582 255.062 76.3586 255.061C76.3591 255.061 76.3596 255.061 76.3601 255.06C76.3607 255.06 76.3613 255.06 76.3619 255.06C76.4738 254.856 76.5902 254.651 76.7114 254.447C76.7999 254.679 76.8837 254.911 76.9769 255.144V255.148C78.1915 258.305 79.6575 261.359 81.3608 264.281C81.4912 264.509 81.6217 264.737 81.7614 264.96C85.9223 271.928 91.3438 278.064 97.7503 283.058C97.7677 283.075 97.7864 283.09 97.8062 283.104C97.8283 283.123 97.8517 283.14 97.8761 283.155C99.3016 284.271 100.775 285.32 102.297 286.302V286.307C103.485 287.078 104.706 287.808 105.945 288.5C108.587 289.969 111.461 291.382 113.93 293.143C116.329 294.849 118.351 296.88 119.427 299.599C119.511 299.817 119.59 300.036 119.66 300.254L117.741 306.161L119.493 306.45Z" fill="#F0F0F0"/>
<path d="M111.559 316.098V316.103L111.084 317.195C110.366 313.217 111.219 309.01 110.627 304.981C110.562 304.53 110.478 304.079 110.371 303.633C109.765 301.086 108.381 298.702 105.922 297.563C105.204 297.237 104.45 296.995 103.676 296.843C102.148 296.517 100.555 296.448 99.0127 296.267C98.6261 296.22 98.244 296.169 97.8713 296.099C95.8774 295.791 93.9736 295.057 92.2902 293.947C90.2291 292.486 88.433 290.685 86.9792 288.621C86.0185 287.326 85.1244 285.982 84.3004 284.596C84.1886 284.42 84.0861 284.238 83.979 284.057C82.0509 280.726 80.4695 277.206 79.2596 273.553C78.6364 271.686 78.1139 269.787 77.6943 267.865C76.7606 263.663 76.312 259.368 76.3572 255.065C76.3572 255.064 76.3573 255.064 76.3576 255.063C76.3578 255.062 76.3581 255.062 76.3586 255.061C76.359 255.061 76.3595 255.061 76.3601 255.06C76.3607 255.06 76.3613 255.06 76.3619 255.06C76.3572 254.865 76.3619 254.67 76.3666 254.475C76.3759 254.075 76.9955 254.163 76.9862 254.563C76.9815 254.758 76.9769 254.949 76.9769 255.144V255.148C76.9389 259.272 77.3561 263.386 78.2207 267.418C78.2673 267.623 78.3139 267.827 78.3558 268.032C79.6154 273.619 81.7321 278.979 84.6312 283.922C84.6638 283.978 84.6964 284.034 84.7337 284.09C85.4092 285.238 86.136 286.353 86.9 287.445C88.3038 289.548 90.0299 291.417 92.0153 292.985C93.6859 294.232 95.6261 295.071 97.6803 295.435C97.8853 295.472 98.0903 295.509 98.3 295.541C98.463 295.569 98.6307 295.593 98.7984 295.611C100.368 295.806 101.98 295.881 103.541 296.178C104.251 296.312 104.947 296.506 105.624 296.759C106.73 297.202 107.731 297.873 108.56 298.728C109.388 299.583 110.026 300.604 110.431 301.723C110.847 302.809 111.131 303.94 111.279 305.092C111.33 305.469 111.368 305.845 111.4 306.226V306.231C111.447 306.845 111.47 307.463 111.48 308.081C111.489 308.852 111.475 309.624 111.456 310.391C111.353 312.293 111.387 314.201 111.559 316.098Z" fill="white"/>
<path d="M84.5655 284.466C82.7903 285.366 80.7523 285.606 78.8156 285.145C76.8789 284.684 75.1695 283.551 73.9928 281.949C73.7558 281.624 74.251 281.241 74.4883 281.567C75.5813 283.061 77.1737 284.116 78.978 284.542C80.7824 284.967 82.6798 284.736 84.3279 283.888C84.6862 283.704 84.9218 284.283 84.5655 284.466H84.5655Z" fill="white"/>
<path d="M97.6196 295.62C98.9168 291.772 98.7123 287.576 97.0468 283.871C96.8815 283.504 97.461 283.268 97.6261 283.634C99.3521 287.493 99.556 291.859 98.1973 295.861C98.0675 296.243 97.4905 296 97.6196 295.62H97.6196Z" fill="white"/>
<path d="M78.0399 267.476C78.7994 267.271 79.496 266.88 80.067 266.34C80.638 265.8 81.0656 265.127 81.3114 264.381C81.4363 263.998 82.0131 264.242 81.8891 264.622C81.6137 265.445 81.1406 266.188 80.511 266.786C79.8814 267.384 79.1146 267.82 78.2775 268.054C78.2004 268.083 78.1153 268.081 78.0395 268.049C77.9636 268.018 77.9026 267.958 77.869 267.883C77.8379 267.807 77.8385 267.721 77.8704 267.645C77.9024 267.568 77.9633 267.508 78.0399 267.476H78.0399Z" fill="white"/>
<path d="M112.933 319.756C112.942 319.742 112.952 319.733 112.961 319.719C112.942 319.775 112.924 319.83 112.91 319.891L112.933 319.756Z" fill="#F0F0F0"/>
<path d="M126.783 291.145L126.131 293.422L122.125 292.674L120.797 296.759L120.569 297.461L119.66 300.254L117.741 306.161L119.493 306.45L118.621 310.251L118.831 310.479L118.896 310.549L119.329 311.023L121.966 313.895L114.755 320.053L113.599 319.788L113.008 319.654C112.994 319.676 112.978 319.698 112.961 319.719C112.967 319.695 112.974 319.672 112.984 319.649L112.817 319.612L111.852 315.438L111.559 316.098V316.103L111.083 317.195C111.121 317.395 111.158 317.59 111.205 317.785C111.2 317.781 111.2 317.771 111.195 317.767C111.191 317.762 111.191 317.762 111.191 317.757C111.13 317.627 111.065 317.502 111.004 317.372C110.082 315.452 109.201 313.505 108.386 311.534C106.377 306.788 104.8 301.871 103.676 296.843C103.63 296.624 103.578 296.406 103.541 296.183V296.178C102.858 292.927 102.442 289.625 102.297 286.307V286.302C102.223 284.485 102.241 282.665 102.353 280.85C102.648 276.159 103.681 271.543 105.414 267.172C105.423 267.149 105.432 267.13 105.442 267.107C108.763 258.769 114.61 251.537 122.558 247.684C122.889 247.517 123.229 247.359 123.569 247.21H123.578L123.583 247.206C123.797 247.113 124.007 247.024 124.221 246.931C124.151 247.173 124.077 247.415 124.012 247.661C123.071 250.909 122.398 254.227 121.999 257.584V257.588C121.962 257.844 121.929 258.109 121.901 258.369V258.374C121.022 266.47 121.657 274.658 123.774 282.523C123.779 282.547 123.788 282.565 123.793 282.588C124.583 285.508 125.583 288.368 126.783 291.145Z" fill="#F0F0F0"/>
<path d="M119.33 311.023C118.962 311.516 118.584 311.994 118.202 312.473C117.834 312.933 117.466 313.393 117.098 313.858C116.136 315.041 115.277 316.303 114.531 317.632C114.157 318.322 113.845 319.043 113.599 319.788L113.008 319.654C112.994 319.676 112.978 319.698 112.961 319.719C112.967 319.695 112.974 319.671 112.984 319.649C114.07 316.265 116.539 313.644 118.682 310.828C118.757 310.735 118.826 310.642 118.896 310.549L119.33 311.023Z" fill="white"/>
<path d="M124.375 247.192C124.254 247.345 124.128 247.503 124.012 247.661C123.103 248.837 122.244 250.05 121.435 251.3C119.994 253.506 118.715 255.813 117.606 258.202C117.517 258.388 117.429 258.578 117.345 258.769C114.972 263.99 113.426 269.546 112.761 275.24C112.751 275.296 112.747 275.347 112.742 275.403C112.588 276.732 112.489 278.066 112.444 279.405C112.295 281.925 112.545 284.454 113.185 286.897C113.278 287.217 113.38 287.534 113.492 287.84C113.772 288.592 114.123 289.316 114.54 290.001C114.84 290.502 115.173 290.982 115.537 291.438C115.756 291.716 115.985 291.991 116.227 292.256C116.367 292.409 116.511 292.562 116.655 292.716C116.777 292.832 116.893 292.953 117.014 293.069C118.272 294.287 119.66 295.416 120.797 296.759L120.569 297.461C119.474 296.076 118.062 294.928 116.791 293.72C115.992 292.971 115.265 292.149 114.62 291.266C114.536 291.145 114.447 291.024 114.368 290.898C113.936 290.269 113.564 289.602 113.255 288.905C113.096 288.556 112.952 288.198 112.821 287.826C112.06 285.423 111.714 282.909 111.796 280.39C111.811 278.777 111.908 277.165 112.085 275.561C112.104 275.352 112.127 275.147 112.155 274.938C112.628 271.121 113.489 267.362 114.727 263.719C116.293 259.097 118.447 254.696 121.137 250.622C121.906 249.455 122.721 248.316 123.583 247.206C123.695 247.052 123.811 246.903 123.932 246.75C124.179 246.434 124.622 246.876 124.375 247.192Z" fill="white"/>
<path d="M112.377 275.62C110.417 275.272 108.644 274.24 107.376 272.709C106.108 271.177 105.427 269.246 105.454 267.26C105.456 267.179 105.489 267.102 105.547 267.045C105.605 266.988 105.682 266.955 105.764 266.954C105.845 266.953 105.923 266.984 105.982 267.039C106.041 267.095 106.077 267.171 106.08 267.252C106.051 269.102 106.686 270.9 107.87 272.324C109.054 273.748 110.709 274.702 112.536 275.016C112.933 275.084 112.772 275.688 112.377 275.62Z" fill="white"/>
<path d="M116.068 292.367C119.427 290.073 121.795 286.6 122.701 282.642C122.791 282.249 123.396 282.409 123.307 282.8C122.356 286.918 119.884 290.527 116.384 292.906C116.05 293.133 115.736 292.592 116.068 292.367H116.068Z" fill="white"/>
<path d="M117.42 258.135C118.15 258.427 118.942 258.534 119.724 258.445C120.506 258.357 121.254 258.076 121.9 257.628C122.231 257.398 122.544 257.939 122.216 258.168C121.499 258.659 120.673 258.968 119.81 259.068C118.946 259.167 118.071 259.054 117.261 258.739C117.182 258.715 117.115 258.663 117.074 258.592C117.032 258.521 117.019 258.437 117.038 258.357C117.059 258.277 117.111 258.209 117.183 258.167C117.255 258.126 117.34 258.114 117.42 258.135Z" fill="white"/>
<path d="M183.834 52.0203C180.307 33.1879 185.86 11.7628 201.295 0.363525C200.42 21.1793 206.954 41.6329 219.74 58.1055C224.694 64.4404 230.866 70.9717 230.674 79.0044C230.555 84.0025 227.846 88.6587 224.275 92.1666C220.704 95.6745 216.306 98.2036 211.96 100.693L211.283 101.743C198.543 87.4074 187.361 70.8528 183.834 52.0203Z" fill="#F0F0F0"/>
<path d="M201.576 0.651438C195.091 15.1296 193.344 31.278 196.583 46.803C197.298 50.1248 198.312 53.4325 200.032 56.3837C201.731 59.2476 204.167 61.6053 207.088 63.212C209.782 64.7646 212.717 66.0416 214.986 68.2205C217.376 70.517 218.441 73.6515 218.352 76.9263C218.244 80.9332 216.698 84.6622 215.06 88.2564C213.241 92.2472 211.289 96.3635 211.407 100.85C211.421 101.394 210.575 101.384 210.56 100.841C210.355 93.0353 216.012 86.7662 217.273 79.2759C217.861 75.7809 217.397 72.0878 214.934 69.3786C212.78 67.0096 209.754 65.6901 207.013 64.1415C204.135 62.5155 201.685 60.5065 199.864 57.7214C198.001 54.8724 196.855 51.5973 196.059 48.3083C194.309 40.8365 193.748 33.1368 194.396 25.4912C195.087 16.7612 197.269 8.21338 200.85 0.217654C201.071 -0.277139 201.796 0.159876 201.576 0.651438H201.576Z" fill="white"/>
<path d="M195.246 41.8652C192.561 42.0538 189.896 41.2841 187.728 39.6937C185.56 38.1032 184.028 35.7956 183.408 33.183C183.284 32.6539 184.103 32.4373 184.227 32.967C184.8 35.401 186.226 37.5504 188.248 39.0273C190.271 40.5042 192.755 41.2112 195.254 41.0209C195.797 40.9802 195.786 41.8248 195.246 41.8652Z" fill="white"/>
<path d="M205.619 62.6041C209.263 58.4925 211.221 53.1616 211.1 47.6743C211.088 47.1306 211.934 47.1401 211.947 47.6831C212.061 53.3936 210.013 58.9371 206.211 63.2074C205.848 63.6142 205.258 63.0087 205.619 62.6041V62.6041Z" fill="white"/>
<path d="M196.078 17.2855C197.132 17.4285 198.205 17.3081 199.201 16.9351C200.197 16.5621 201.085 15.9482 201.784 15.1485C202.141 14.7373 202.731 15.3433 202.376 15.7517C201.599 16.6317 200.618 17.3085 199.519 17.723C198.42 18.1376 197.235 18.2772 196.069 18.1298C195.958 18.1251 195.853 18.0783 195.776 17.9991C195.698 17.9199 195.653 17.8141 195.651 17.7032C195.652 17.5914 195.698 17.4848 195.778 17.4066C195.858 17.3284 195.966 17.2848 196.078 17.2854V17.2855Z" fill="white"/>
<path d="M264.413 15.9408C264.197 16.2039 263.981 16.4669 263.767 16.7369C260.884 20.2886 258.295 24.0681 256.026 28.038C255.845 28.3422 255.667 28.6531 255.496 28.9618C250.131 38.5845 246.603 49.1173 245.092 60.0248C244.495 64.3657 244.229 68.7456 244.298 73.1267C244.393 79.1771 244.979 85.7298 243.12 91.2944C242.933 91.8772 242.709 92.4478 242.451 93.0029L212.619 102.485C212.541 102.473 212.464 102.467 212.385 102.455L211.211 102.888C211.192 102.662 211.177 102.428 211.157 102.202C211.145 102.071 211.14 101.938 211.129 101.807C211.123 101.719 211.117 101.631 211.107 101.552C211.105 101.523 211.103 101.493 211.104 101.471C211.093 101.392 211.092 101.317 211.084 101.245C210.995 99.9347 210.913 98.622 210.845 97.3048C210.843 97.298 210.843 97.298 210.848 97.2891C210.336 87.2575 210.658 77.0951 212.517 67.3046C212.573 67.0101 212.627 66.7089 212.696 66.41C213.559 62.0016 214.781 57.6708 216.351 53.461C217.218 51.1586 218.201 48.9015 219.296 46.6983C222.139 41.0109 225.86 35.805 230.323 31.2712C239.223 22.2346 250.921 16.138 263.455 15.9461C263.776 15.9414 264.09 15.9387 264.413 15.9408Z" fill="#F0F0F0"/>
<path d="M264.466 16.3398C250.551 24.005 239.411 35.8493 232.627 50.1905C231.193 53.2718 230.007 56.522 229.599 59.9116C229.227 63.2186 229.75 66.5646 231.112 69.602C232.326 72.4595 233.899 75.2422 234.395 78.3442C234.918 81.614 233.876 84.7561 231.829 87.3176C229.324 90.4517 225.84 92.5009 222.363 94.3867C218.502 96.4806 214.459 98.5944 211.845 102.248C211.529 102.69 210.859 102.174 211.175 101.732C215.722 95.3763 224.022 93.7685 229.549 88.5451C232.128 86.1077 233.986 82.8803 233.655 79.2378C233.365 76.0525 231.745 73.1816 230.491 70.2989C229.175 67.272 228.431 64.1963 228.657 60.8788C228.889 57.4851 229.951 54.1818 231.3 51.0774C234.412 44.0607 238.611 37.5759 243.743 31.8604C249.563 25.3049 256.464 19.791 264.148 15.5572C264.624 15.2954 264.939 16.0797 264.466 16.3398V16.3398Z" fill="white"/>
<path d="M234.539 45.4445C232.282 43.9824 230.619 41.7675 229.847 39.1952C229.076 36.6229 229.246 33.8608 230.327 31.4021C230.548 30.9054 231.332 31.2239 231.111 31.7213C230.1 34.009 229.942 36.5819 230.665 38.9758C231.388 41.3696 232.946 43.4267 235.056 44.7756C235.514 45.0693 234.995 45.7365 234.539 45.4445H234.539Z" fill="white"/>
<path d="M230.306 68.234C235.697 67.1402 240.477 64.0593 243.692 59.6058C244.011 59.1642 244.681 59.6802 244.363 60.1212C241.008 64.7494 236.027 67.9454 230.414 69.0714C229.879 69.1783 229.774 68.3403 230.306 68.234H230.306Z" fill="white"/>
<path d="M250.038 26.3191C250.793 27.0664 251.723 27.6148 252.743 27.9152C253.763 28.2155 254.842 28.2583 255.883 28.0398C256.417 27.9261 256.522 28.7643 255.992 28.8772C254.841 29.1133 253.649 29.0645 252.521 28.7352C251.393 28.4059 250.363 27.806 249.521 26.988C249.436 26.9175 249.38 26.8171 249.366 26.7071C249.351 26.5971 249.38 26.4858 249.445 26.3959C249.513 26.3077 249.614 26.2501 249.725 26.2358C249.837 26.2214 249.949 26.2514 250.038 26.3192V26.3191Z" fill="white"/>
<path d="M72.7118 29.5229C71.0634 28.3621 69.2599 27.1516 67.2428 27.2C62.3608 27.3171 59.7286 34.457 54.8516 34.2059C51.7414 34.0458 49.6768 30.8937 46.7808 29.7508C43.0106 28.2629 38.2127 31.1729 37.8014 35.1968L38.2856 34.7547C52.9412 38.319 68.1497 39.02 83.0723 36.8188C79.6189 34.3869 76.1654 31.9549 72.7118 29.5229Z" fill="#F0F0F0"/>
<path d="M81.8465 38.111C91.2025 38.111 98.787 30.5446 98.787 21.2108C98.787 11.8771 91.2025 4.31067 81.8465 4.31067C72.4906 4.31067 64.9061 11.8771 64.9061 21.2108C64.9061 30.5446 72.4906 38.111 81.8465 38.111Z" fill="#FF6582"/>
<path d="M121.5 17.9824C119.399 16.5031 117.101 14.9604 114.53 15.0221C108.308 15.1714 104.954 24.2705 98.7386 23.9505C94.7749 23.7464 92.1437 19.7294 88.453 18.2729C83.6482 16.3767 77.5337 20.0852 77.0095 25.2133L77.6266 24.6499C96.3039 29.1924 115.686 30.0856 134.703 27.2805C130.302 24.1811 125.901 21.0818 121.5 17.9824Z" fill="#F0F0F0"/>
<path d="M273.88 187.636L255.902 91.6058C255.595 90.0227 254.757 88.591 253.527 87.5451C252.296 86.4993 250.747 85.9015 249.131 85.8498C248.986 85.8466 248.84 85.8466 248.695 85.8498L236.448 86.2881L235.13 86.3365L229.018 86.5556L227.7 86.6007L223.769 86.7425L144.493 89.5818C144.373 89.5883 144.25 89.5883 144.131 89.5851L126.366 89.2145L119.792 89.0791L119.582 89.0759L114.73 88.9727L72.4496 88.0961L61.2398 87.8609L55.7125 87.7481L54.388 87.7191L48.0853 87.5901L46.7641 87.5612L40.316 87.429L38.9947 87.4L31.9103 87.2518L30.799 87.2292L24.4802 87.0971L23.482 87.0777H23.3366C21.6591 87.0845 20.038 87.6828 18.7599 88.7668C17.4818 89.8507 16.6291 91.3506 16.3523 93.0012L0.0933032 192.65C-0.0718091 193.66 -0.0149731 194.693 0.259874 195.678C0.534721 196.664 1.021 197.578 1.68504 198.357C2.34908 199.136 3.175 199.762 4.10557 200.191C5.03615 200.621 6.04913 200.843 7.07436 200.843H100.448C101.822 200.847 103.16 201.287 104.267 202.1L106.037 203.408C107.257 204.304 108.731 204.789 110.246 204.794H165.274C166.204 204.796 167.125 204.615 167.984 204.26C168.843 203.904 169.623 203.383 170.278 202.725C171.399 201.607 172.895 200.942 174.478 200.859L267.296 195.98C268.303 195.927 269.286 195.661 270.181 195.198C271.076 194.735 271.861 194.087 272.485 193.297C273.108 192.507 273.555 191.593 273.796 190.617C274.036 189.641 274.065 188.624 273.88 187.636V187.636Z" fill="#CCCCCC"/>
<path d="M259.168 185.025L249.147 85.9787C249.144 85.9368 249.138 85.8917 249.131 85.8498C248.943 84.2673 248.161 82.8148 246.941 81.7859L225.384 63.8703C224.446 63.0853 223.281 62.621 222.06 62.5457C212.197 61.914 162.057 59.5743 143.549 75.6013C142.988 76.0888 142.326 76.4477 141.61 76.6526C140.895 76.8575 140.143 76.9035 139.408 76.7873C138.671 76.668 137.968 76.3915 137.348 75.9765C136.729 75.5616 136.206 75.0181 135.815 74.3831C134.242 71.9361 132.18 69.8386 129.758 68.2211C128.671 67.4679 127.538 66.7823 126.366 66.1681C125.329 65.6235 124.202 65.0949 122.974 64.5858C121.918 64.1474 120.791 63.7252 119.582 63.3224C113.318 61.234 104.945 59.6742 93.7546 59.1521C89.1124 58.9329 84.0664 58.9039 78.7587 59.0619C73.913 59.2037 68.7636 59.4969 63.456 59.9352L63.3784 59.9385L27.4652 81.8116C26.66 82.3124 25.9796 82.9893 25.4754 83.7911C24.9711 84.5928 24.6562 85.4985 24.5545 86.4396L24.4802 87.0971L13.0766 188.748C12.9781 189.611 13.0577 190.486 13.3105 191.318C13.5632 192.15 13.9839 192.921 14.5465 193.585C15.0941 194.232 15.7761 194.753 16.5453 195.111C17.3144 195.47 18.1524 195.657 19.0013 195.661H107.491C108.667 195.667 109.807 196.07 110.724 196.805L114.588 199.892C115.595 200.699 116.841 201.15 118.132 201.175L157.04 201.81H157.133C158.116 201.808 159.082 201.557 159.941 201.081L167.445 196.924C168.13 196.544 168.892 196.323 169.674 196.279L253.537 191.861C254.355 191.817 255.154 191.603 255.882 191.23C256.611 190.858 257.253 190.338 257.766 189.702C258.3 189.054 258.698 188.307 258.939 187.504C259.18 186.701 259.258 185.859 259.168 185.025Z" fill="#E6E6E6"/>
<path d="M229.896 167.163L228.722 151.747L223.769 86.7443L223.033 77.1283C222.847 74.6025 221.725 72.2365 219.885 70.4914C218.045 68.7462 215.62 67.7472 213.082 67.6888C194.936 67.2241 162.078 68.0421 145.954 78.82C144.161 80.0362 141.986 80.5606 139.833 80.2956C137.681 80.0305 135.699 78.9941 134.256 77.3793C132.025 74.9357 129.346 72.9402 126.364 71.4999C124.182 70.4081 121.913 69.4971 119.581 68.7764C112.756 66.6013 104.144 65.2798 93.7437 64.8119L69.0616 64.6678H69.0197C67.3099 64.6694 65.6648 65.3204 64.4187 66.4884C63.1727 67.6564 62.4191 69.2538 62.3111 70.9562L61.2396 87.8598L56.5575 161.99C56.47 163.371 56.6646 164.756 57.1296 166.059C57.5946 167.363 58.3204 168.559 59.2628 169.574C60.2051 170.589 61.3445 171.403 62.6117 171.966C63.8789 172.528 65.2475 172.828 66.6344 172.847C108.065 173.461 126.164 182.185 134.056 189.388C135.734 190.924 137.878 191.858 140.147 192.041C142.417 192.225 144.684 191.648 146.588 190.402C160.913 181.041 184.729 178.438 203.685 178.034C209.49 177.913 214.838 177.992 219.32 178.15C220.761 178.202 222.196 177.95 223.532 177.41C224.868 176.87 226.074 176.055 227.073 175.018C228.071 173.981 228.838 172.745 229.325 171.391C229.811 170.038 230.006 168.597 229.896 167.163Z" fill="white"/>
<path d="M24.2183 188.665C24.2029 188.665 24.1868 188.664 24.1713 188.663C24.0849 188.657 24.0005 188.634 23.923 188.595C23.8455 188.556 23.7764 188.503 23.7196 188.438C23.6628 188.373 23.6195 188.297 23.592 188.215C23.5646 188.133 23.5536 188.046 23.5597 187.96L30.6882 87.5457C30.6932 87.4591 30.7156 87.3745 30.754 87.2967C30.7923 87.2189 30.8459 87.1495 30.9115 87.0927C30.9772 87.0358 31.0535 86.9927 31.1361 86.9657C31.2187 86.9387 31.3059 86.9285 31.3925 86.9356C31.4789 86.9417 31.5633 86.9647 31.6408 87.0033C31.7183 87.0419 31.7874 87.0953 31.8442 87.1606C31.901 87.2258 31.9443 87.3016 31.9717 87.3835C31.9992 87.4655 32.0101 87.5521 32.004 87.6383L24.8756 188.053C24.864 188.219 24.7897 188.374 24.6678 188.488C24.5458 188.601 24.3852 188.665 24.2183 188.665Z" fill="white"/>
<path d="M32.7967 184.715C32.7812 184.715 32.7651 184.714 32.7496 184.713C32.6632 184.707 32.5789 184.684 32.5014 184.645C32.4239 184.607 32.3548 184.553 32.298 184.488C32.2412 184.423 32.1978 184.347 32.1704 184.265C32.143 184.183 32.132 184.096 32.1381 184.01L39.2665 83.5959C39.2716 83.5093 39.294 83.4246 39.3323 83.3468C39.3707 83.269 39.4243 83.1997 39.4899 83.1428C39.5555 83.086 39.6319 83.0428 39.7145 83.0159C39.7971 82.9889 39.8842 82.9787 39.9708 82.9858C40.0573 82.9918 40.1416 83.0148 40.2191 83.0534C40.2966 83.092 40.3657 83.1455 40.4225 83.2107C40.4793 83.276 40.5227 83.3518 40.5501 83.4337C40.5775 83.5157 40.5885 83.6022 40.5824 83.6884L33.454 184.103C33.4424 184.269 33.3681 184.424 33.2461 184.538C33.1242 184.652 32.9636 184.715 32.7967 184.715Z" fill="white"/>
<path d="M40.7152 182.74C40.6997 182.74 40.6836 182.739 40.6681 182.738C40.5817 182.732 40.4973 182.709 40.4198 182.67C40.3423 182.632 40.2732 182.578 40.2164 182.513C40.1596 182.448 40.1163 182.372 40.0889 182.29C40.0614 182.208 40.0505 182.122 40.0566 182.035L47.185 81.621C47.19 81.5344 47.2124 81.4497 47.2508 81.3719C47.2892 81.2941 47.3427 81.2248 47.4084 81.1679C47.474 81.1111 47.5503 81.0679 47.6329 81.0409C47.7155 81.014 47.8027 81.0037 47.8893 81.0109C47.9757 81.0169 48.0601 81.0399 48.1376 81.0785C48.2151 81.1171 48.2842 81.1706 48.341 81.2358C48.3978 81.3011 48.4411 81.3768 48.4686 81.4588C48.496 81.5408 48.507 81.6273 48.5009 81.7135L41.3725 182.128C41.3609 182.294 41.2866 182.449 41.1646 182.563C41.0426 182.677 40.882 182.74 40.7152 182.74Z" fill="white"/>
<path d="M48.6336 178.79C48.6182 178.79 48.6021 178.789 48.5866 178.788C48.5002 178.782 48.4158 178.759 48.3383 178.721C48.2608 178.682 48.1917 178.628 48.1349 178.563C48.0781 178.498 48.0348 178.422 48.0073 178.34C47.9799 178.258 47.9689 178.172 47.975 178.086L55.1034 77.6711C55.1085 77.5846 55.1309 77.4999 55.1693 77.4221C55.2076 77.3443 55.2612 77.275 55.3268 77.2181C55.3924 77.1613 55.4688 77.1181 55.5514 77.0911C55.634 77.0641 55.7212 77.0539 55.8078 77.061C55.8942 77.0671 55.9785 77.0901 56.056 77.1287C56.1335 77.1673 56.2027 77.2207 56.2595 77.286C56.3162 77.3512 56.3596 77.427 56.387 77.509C56.4145 77.591 56.4254 77.6775 56.4193 77.7637L49.2909 178.178C49.2793 178.344 49.205 178.5 49.0831 178.613C48.9611 178.727 48.8005 178.79 48.6336 178.79Z" fill="white"/>
<path d="M251.213 189.323C251.228 189.323 251.244 189.322 251.26 189.321C251.346 189.315 251.43 189.292 251.508 189.253C251.585 189.215 251.654 189.161 251.711 189.096C251.768 189.031 251.811 188.955 251.839 188.873C251.866 188.791 251.877 188.705 251.871 188.618L244.743 88.204C244.738 88.1175 244.715 88.0328 244.677 87.955C244.639 87.8772 244.585 87.8078 244.519 87.751C244.454 87.6941 244.377 87.651 244.295 87.624C244.212 87.597 244.125 87.5868 244.038 87.5939C243.952 87.6 243.868 87.623 243.79 87.6616C243.713 87.7002 243.643 87.7536 243.587 87.8189C243.53 87.8841 243.487 87.9599 243.459 88.0419C243.432 88.1238 243.421 88.2104 243.427 88.2966L250.555 188.711C250.567 188.877 250.641 189.033 250.763 189.146C250.885 189.26 251.046 189.323 251.213 189.323Z" fill="white"/>
<path d="M242.634 183.398C242.65 183.398 242.666 183.398 242.681 183.396C242.768 183.39 242.852 183.367 242.93 183.329C243.007 183.29 243.076 183.237 243.133 183.171C243.19 183.106 243.233 183.03 243.261 182.948C243.288 182.866 243.299 182.78 243.293 182.694L236.164 82.2793C236.159 82.1927 236.137 82.1081 236.099 82.0303C236.06 81.9525 236.007 81.8831 235.941 81.8262C235.875 81.7694 235.799 81.7262 235.716 81.6993C235.634 81.6723 235.547 81.6621 235.46 81.6692C235.374 81.6753 235.289 81.6982 235.212 81.7368C235.134 81.7754 235.065 81.8289 235.008 81.8941C234.952 81.9594 234.908 82.0352 234.881 82.1171C234.853 82.1991 234.842 82.2857 234.849 82.3718L241.977 182.786C241.989 182.952 242.063 183.108 242.185 183.221C242.307 183.335 242.467 183.398 242.634 183.398Z" fill="white"/>
<path d="M234.716 176.815C234.731 176.815 234.747 176.815 234.763 176.813C234.849 176.807 234.934 176.784 235.011 176.746C235.089 176.707 235.158 176.654 235.215 176.588C235.271 176.523 235.315 176.447 235.342 176.365C235.37 176.283 235.381 176.197 235.374 176.111L228.246 75.6963C228.241 75.6097 228.219 75.5251 228.18 75.4473C228.142 75.3695 228.088 75.3001 228.023 75.2433C227.957 75.1864 227.881 75.1432 227.798 75.1163C227.715 75.0893 227.628 75.0791 227.542 75.0862C227.455 75.0923 227.371 75.1152 227.293 75.1538C227.216 75.1924 227.147 75.2459 227.09 75.3111C227.033 75.3764 226.99 75.4522 226.962 75.5341C226.935 75.6161 226.924 75.7027 226.93 75.7889L234.059 176.203C234.07 176.369 234.144 176.525 234.266 176.638C234.388 176.752 234.549 176.815 234.716 176.815Z" fill="white"/>
<path d="M72.7771 87.3515C87.6511 82.6172 104.245 83.8706 118.336 90.5402C122.357 92.4333 126.154 94.7665 129.658 97.4967C130.649 98.2727 132.059 96.8846 131.057 96.1002C118.115 86.0855 101.853 81.3281 85.5391 82.7838C81.0258 83.1867 76.57 84.0798 72.2508 85.4471C71.0417 85.8319 71.5585 87.7394 72.7771 87.3515H72.7771Z" fill="#3F3D56"/>
<path d="M154.624 98.2628C168.453 91.0114 185.013 89.4301 200.048 93.5463C204.335 94.717 208.478 96.3602 212.4 98.4455C213.523 99.0436 214.525 97.3394 213.399 96.7402C199.069 89.1119 181.867 87.3558 166.218 91.6082C161.852 92.7966 157.63 94.4562 153.625 96.5575C152.497 97.1491 153.496 98.8542 154.624 98.2628Z" fill="#3F3D56"/>
<path d="M154.624 111.429C168.453 104.177 185.013 102.596 200.048 106.712C204.335 107.883 208.478 109.526 212.4 111.612C213.523 112.21 214.525 110.505 213.399 109.906C199.069 102.278 181.867 100.522 166.218 104.774C161.852 105.963 157.63 107.622 153.625 109.724C152.497 110.315 153.496 112.02 154.624 111.429V111.429Z" fill="#3F3D56"/>
<path d="M213.883 123.889C213.894 123.719 213.853 123.55 213.766 123.404C213.679 123.258 213.55 123.142 213.395 123.07C201.916 117.073 188.899 114.641 176.022 116.086C175.941 116.093 175.867 116.106 175.78 116.112H175.777C175.697 116.119 175.619 116.131 175.541 116.147C167.882 117.027 160.451 119.311 153.625 122.886C153.476 122.975 153.353 123.1 153.268 123.251C153.182 123.401 153.137 123.571 153.137 123.744V148.305C153.14 148.456 153.177 148.604 153.245 148.739C153.314 148.874 153.412 148.991 153.533 149.083C153.654 149.174 153.794 149.237 153.942 149.266C154.091 149.295 154.244 149.291 154.391 149.252C154.694 149.165 154.998 149.081 155.308 149.001C162.209 147.137 169.294 146.032 176.436 145.704C176.587 145.697 176.739 145.691 176.898 145.684C182.714 145.435 188.542 145.644 194.326 146.31C194.447 146.317 194.568 146.329 194.688 146.348C194.985 146.381 195.289 146.416 195.586 146.455C195.705 146.468 195.818 146.48 195.928 146.5C197.085 146.645 198.232 146.809 199.382 146.986C201.042 147.251 202.703 147.545 204.363 147.87C204.466 147.889 204.573 147.915 204.68 147.934C207.345 148.463 209.997 149.075 212.636 149.752C212.783 149.789 212.937 149.794 213.086 149.764C213.235 149.733 213.375 149.67 213.495 149.578C213.616 149.486 213.714 149.368 213.782 149.233C213.851 149.098 213.887 148.949 213.89 148.798V123.927C213.891 123.914 213.889 123.901 213.883 123.889Z" fill="#3F3D56"/>
<path d="M177.574 117.425C176.849 117.071 176.017 116.998 175.241 117.221C174.899 117.349 174.585 117.544 174.318 117.794C174.051 118.045 173.837 118.345 173.688 118.679C173.419 119.318 173.247 119.994 173.176 120.684C173.135 120.955 173.133 121.298 173.406 121.424C173.506 121.46 173.613 121.468 173.716 121.448C173.82 121.427 173.916 121.379 173.994 121.308C174.135 121.169 174.251 121.007 174.338 120.829C174.813 120.092 175.466 119.487 176.237 119.068C177.009 118.65 177.874 118.432 178.752 118.435L179.482 118.726C178.907 118.209 178.266 117.772 177.574 117.425Z" fill="#FF6582"/>
<path d="M185.484 123.086C184.917 122.254 184.245 121.364 183.192 121.092C181.973 120.777 180.721 121.403 179.659 122.02C176.501 123.855 173.443 125.856 170.497 128.015L170.5 128.047L177.337 127.628C178.984 127.528 180.687 127.413 182.142 126.721C182.665 126.394 183.248 126.177 183.858 126.084C184.236 126.104 184.607 126.199 184.948 126.363C185.289 126.527 185.594 126.757 185.846 127.039C188.997 130.019 189.909 134.575 193.443 137.193C191.194 132.275 188.531 127.556 185.484 123.086Z" fill="white"/>
<path d="M176.898 145.684C176.74 145.691 176.588 145.697 176.437 145.704C175.335 145.309 174.206 144.96 173.065 144.657C172.326 144.46 171.573 144.282 170.821 144.13C169.97 143.946 169.112 143.801 168.254 143.676C166.621 143.439 164.975 143.301 163.325 143.262C163.313 143.263 163.3 143.262 163.288 143.258C163.276 143.254 163.265 143.248 163.256 143.239C163.246 143.231 163.239 143.221 163.234 143.209C163.228 143.198 163.226 143.185 163.226 143.173C163.226 143.16 163.228 143.148 163.234 143.136C163.239 143.125 163.246 143.115 163.256 143.106C163.265 143.098 163.276 143.091 163.288 143.088C163.3 143.084 163.313 143.082 163.325 143.084C163.536 143.084 163.747 143.09 163.952 143.104C165.605 143.164 167.254 143.325 168.888 143.584C169.739 143.722 170.59 143.887 171.435 144.071C172.2 144.242 172.966 144.433 173.718 144.644C174.794 144.947 175.854 145.293 176.898 145.684Z" fill="white"/>
<path d="M195.929 146.5C195.817 146.481 195.705 146.467 195.586 146.454C195.131 146.079 194.669 145.724 194.187 145.375C193.587 144.94 192.966 144.532 192.333 144.15C190.93 143.301 189.465 142.557 187.951 141.925C185.558 140.931 183.08 140.151 180.548 139.595C177.659 138.963 174.735 138.506 171.791 138.225C168.848 137.923 165.892 137.738 162.936 137.554C162.81 137.547 162.804 137.363 162.936 137.37C163.305 137.396 163.675 137.416 164.051 137.442C167.04 137.626 170.029 137.837 172.999 138.173C175.943 138.488 178.864 138.993 181.742 139.687C184.199 140.291 186.598 141.113 188.908 142.142C190.237 142.738 191.525 143.422 192.762 144.19C193.547 144.683 194.306 145.21 195.032 145.77C195.335 146.007 195.639 146.244 195.929 146.5Z" fill="white"/>
<path d="M194.689 146.349C194.569 146.33 194.447 146.316 194.326 146.309C194.187 146.197 194.042 146.092 193.897 145.987C192.881 145.261 191.821 144.6 190.723 144.005C189.726 143.465 188.701 142.975 187.654 142.537C185.262 141.54 182.784 140.76 180.251 140.207C177.362 139.576 174.438 139.118 171.494 138.838C168.551 138.535 165.595 138.351 162.639 138.166C162.513 138.153 162.513 137.975 162.639 137.982C163.015 138.008 163.384 138.028 163.754 138.054C166.743 138.239 169.732 138.449 172.702 138.785C175.646 139.1 178.567 139.606 181.445 140.299C183.903 140.902 186.301 141.724 188.611 142.755C189.482 143.15 190.334 143.577 191.165 144.045C192.398 144.72 193.576 145.491 194.689 146.349Z" fill="white"/>
<path d="M204.679 147.935C204.574 147.916 204.468 147.889 204.362 147.87C204.244 147.744 204.131 147.613 204.019 147.481C203.452 146.829 202.891 146.171 202.337 145.506C200.152 142.913 198.08 140.24 196.127 137.515C194.451 135.184 192.861 132.808 191.356 130.385C190.637 129.24 189.944 128.081 189.265 126.909C188.737 126.001 188.222 125.09 187.72 124.177C187.575 123.914 187.437 123.651 187.298 123.387C186.975 122.768 186.651 122.143 186.308 121.531C185.935 120.781 185.388 120.131 184.711 119.635C184.373 119.409 183.982 119.275 183.576 119.247C183.004 119.249 182.442 119.394 181.94 119.668C178.248 121.383 174.766 123.514 171.56 126.02C168.43 128.45 165.599 131.241 163.127 134.335C163.048 134.427 162.876 134.341 162.949 134.243C163.246 133.874 163.549 133.505 163.853 133.143C166.228 130.34 168.904 127.804 171.831 125.579C171.837 125.573 171.851 125.566 171.857 125.56C172.114 125.356 172.372 125.158 172.636 124.967C174.27 123.767 175.971 122.659 177.73 121.649C178.627 121.129 179.545 120.636 180.482 120.168C180.713 120.05 180.95 119.931 181.188 119.819C181.425 119.701 181.663 119.589 181.9 119.477C182.371 119.238 182.885 119.097 183.411 119.062C185.246 119.036 186.19 120.879 186.843 122.123C187.047 122.512 187.259 122.9 187.463 123.289C188.255 124.757 189.08 126.218 189.938 127.66C190.459 128.555 191 129.444 191.548 130.326C192.333 131.583 193.138 132.827 193.976 134.065C193.976 134.066 193.976 134.067 193.977 134.068C193.977 134.068 193.977 134.069 193.978 134.07C193.979 134.07 193.979 134.071 193.98 134.071C193.981 134.071 193.982 134.072 193.983 134.072C194.953 135.533 195.962 136.968 197.005 138.397C198.793 140.839 200.667 143.226 202.627 145.559C203.3 146.362 203.984 147.154 204.679 147.935Z" fill="white"/>
<path d="M213.891 145.032V145.335C213.238 144.572 212.571 143.814 211.911 143.057C211.634 142.741 211.357 142.425 211.08 142.109C209.905 140.78 208.724 139.454 207.536 138.133C206.342 136.817 205.148 135.5 203.94 134.19C203.65 133.874 203.359 133.558 203.062 133.242C202.825 132.977 202.567 132.73 202.29 132.505C202.012 132.273 201.691 132.097 201.347 131.985C200.95 131.875 200.532 131.871 200.133 131.972C199.677 132.077 199.242 132.242 198.8 132.38C198.344 132.531 197.896 132.676 197.44 132.821C196.53 133.117 195.626 133.413 194.715 133.71C194.704 133.714 194.692 133.716 194.68 133.716C194.667 133.716 194.655 133.713 194.644 133.708C194.633 133.703 194.623 133.696 194.615 133.688C194.607 133.679 194.6 133.668 194.596 133.657C194.591 133.644 194.589 133.631 194.589 133.617C194.59 133.604 194.594 133.591 194.6 133.579C194.606 133.567 194.615 133.557 194.626 133.548C194.637 133.54 194.649 133.535 194.662 133.532C194.887 133.459 195.118 133.387 195.349 133.315C196.266 133.012 197.176 132.716 198.094 132.419C198.549 132.268 199.004 132.123 199.46 131.978C199.882 131.818 200.328 131.729 200.779 131.715C201.516 131.768 202.208 132.091 202.719 132.623C203.003 132.887 203.26 133.163 203.518 133.446C203.821 133.775 204.125 134.105 204.428 134.434C205.649 135.763 206.861 137.098 208.064 138.436C209.272 139.779 210.468 141.124 211.654 142.472C211.74 142.57 211.825 142.669 211.911 142.768C212.578 143.518 213.231 144.275 213.891 145.032Z" fill="white"/>
<path d="M181.137 118.862L180.954 118.941C180.536 118.237 179.95 117.647 179.248 117.223C178.546 116.799 177.75 116.554 176.931 116.511C174.229 116.32 171.856 118.116 171.641 120.515C171.553 121.502 171.84 122.487 172.444 123.274L172.274 123.374C171.645 122.554 171.347 121.529 171.438 120.5C171.662 118.002 174.134 116.132 176.947 116.331C177.8 116.376 178.629 116.63 179.36 117.072C180.091 117.513 180.702 118.128 181.137 118.862Z" fill="#FF6582"/>
<path d="M167.788 123.715C167.079 123.407 166.307 123.273 165.535 123.322C164.763 123.371 164.015 123.602 163.35 123.997C165.775 124.368 168.179 124.866 170.551 125.489C169.569 124.978 168.8 124.177 167.788 123.715Z" fill="white"/>
<path d="M163.337 123.995L163.07 124.187C163.16 124.12 163.254 124.057 163.35 123.997L163.337 123.995Z" fill="white"/>
<path d="M202.188 133.718C201.939 133.397 201.606 133.151 201.227 133.005L200.852 133.018C203.797 137.59 207.655 141.508 212.186 144.525C208.853 140.923 205.521 137.32 202.188 133.718Z" fill="white"/>
<path d="M171.377 125.112C171.271 125.007 171.165 124.902 171.058 124.796C170.237 123.905 169.248 123.183 168.147 122.671C167.587 122.436 166.986 122.312 166.378 122.307C165.749 122.322 165.128 122.442 164.54 122.663C164.264 122.761 163.993 122.872 163.727 122.991C163.423 123.127 163.124 123.272 162.826 123.418C162.267 123.693 161.716 123.979 161.172 124.278C160.089 124.872 159.04 125.512 158.025 126.197C157.499 126.552 156.984 126.919 156.48 127.297C156.011 127.649 155.551 128.01 155.101 128.38C155.005 128.459 154.861 128.331 154.957 128.252C155.076 128.154 155.196 128.057 155.316 127.96C155.655 127.688 155.999 127.421 156.349 127.16C156.987 126.682 157.641 126.222 158.312 125.781C159.356 125.095 160.435 124.455 161.55 123.862C162.107 123.566 162.672 123.282 163.245 123.011C163.418 122.929 163.593 122.849 163.77 122.773C164.174 122.592 164.591 122.442 165.017 122.322C165.629 122.147 166.268 122.091 166.901 122.158C167.507 122.235 168.095 122.416 168.639 122.692C169.718 123.295 170.691 124.069 171.521 124.984C171.608 125.071 171.465 125.199 171.377 125.112Z" fill="white"/>
<path d="M72.7771 100.518C87.6511 95.7833 104.245 97.0367 118.336 103.706C122.357 105.599 126.154 107.933 129.658 110.663C130.649 111.439 132.059 110.051 131.057 109.266C118.115 99.2516 101.853 94.4942 85.5391 95.9498C81.0258 96.3528 76.57 97.2458 72.2508 98.6132C71.0417 98.998 71.5585 100.905 72.7771 100.518H72.7771Z" fill="#3F3D56"/>
<path d="M72.7771 113.684C87.6511 108.949 104.245 110.203 118.336 116.872C122.357 118.765 126.154 121.099 129.658 123.829C130.649 124.605 132.059 123.217 131.057 122.432C118.115 112.418 101.853 107.66 85.5391 109.116C81.0258 109.519 76.57 110.412 72.2508 111.779C71.0417 112.164 71.5585 114.071 72.7771 113.684H72.7771Z" fill="#3F3D56"/>
<path d="M72.7771 126.85C87.6511 122.115 104.245 123.369 118.336 130.038C122.357 131.932 126.154 134.265 129.658 136.995C130.649 137.771 132.059 136.383 131.057 135.598C118.115 125.584 101.853 120.826 85.5391 122.282C81.0258 122.685 76.57 123.578 72.2508 124.945C71.0417 125.33 71.5585 127.238 72.7771 126.85H72.7771Z" fill="#3F3D56"/>
<path d="M72.7771 140.016C87.6511 135.281 104.245 136.535 118.336 143.204C122.357 145.098 126.154 147.431 129.658 150.161C130.649 150.937 132.059 149.549 131.057 148.764C118.115 138.75 101.853 133.992 85.5391 135.448C81.0258 135.851 76.57 136.744 72.2508 138.111C71.0417 138.496 71.5585 140.404 72.7771 140.016H72.7771Z" fill="#3F3D56"/>
<path d="M72.7771 153.182C87.6511 148.448 104.245 149.701 118.336 156.371C122.357 158.264 126.154 160.597 129.658 163.327C130.649 164.103 132.059 162.715 131.057 161.931C118.115 151.916 101.853 147.158 85.5391 148.614C81.0258 149.017 76.57 149.91 72.2508 151.277C71.0417 151.662 71.5585 153.57 72.7771 153.182L72.7771 153.182Z" fill="#3F3D56"/>
<path d="M126.366 66.1681V103.069C126.366 103.698 125.268 104.223 123.785 104.365C123.527 104.391 123.255 104.404 122.974 104.404C122.158 104.419 121.346 104.287 120.577 104.014C120.435 103.958 120.297 103.893 120.164 103.817C119.795 103.601 119.582 103.346 119.582 103.069V63.3224C120.79 63.7252 121.918 64.1474 122.974 64.5857C124.202 65.095 125.329 65.6235 126.366 66.1681Z" fill="#478F9A"/>
<path d="M140.584 78.8209H139.615V198.187H140.584V78.8209Z" fill="#E6E6E6"/>
<path d="M227.077 175.013C226.078 176.051 224.871 176.866 223.534 177.407C222.198 177.947 220.762 178.201 219.32 178.15C214.839 177.992 209.49 177.913 203.686 178.034L203.653 178.006L228.81 145.472L229.896 167.163C230.004 168.596 229.81 170.035 229.324 171.387C228.838 172.74 228.073 173.975 227.077 175.013Z" fill="#F2F2F2"/>
<path d="M164.45 288.719L163.108 299.585L162.083 307.844L161.673 311.176H155.84V308.216L155.836 298.418V288.719H164.45Z" fill="#FFB6B6"/>
<path d="M123.779 287.58L122.125 292.674L120.797 296.759L120.569 297.461L119.661 300.254L117.741 306.161L116.786 309.103L111.48 308.081L111.056 308.002L111.401 306.227L111.61 305.144L113.93 293.143L114.308 291.21L114.368 290.899L114.541 290.001L115.323 285.953L120.979 287.041L121.631 287.166L123.779 287.58Z" fill="#FFB6B6"/>
<path d="M173.213 224.009C169.877 242.298 169.043 250.194 169.043 250.194C169.043 250.194 171.545 253.104 169.877 254.767C168.209 256.431 169.877 259.754 169.877 259.754L166.127 300.073L163.108 299.585L155.836 298.418L153.213 297.996L154.88 260.173C154.88 260.173 153.213 256.845 154.047 256.013C154.88 255.181 153.213 250.194 153.213 250.194L151.13 210.707L138.211 253.935C138.211 253.935 139.465 255.599 138.211 256.845C136.963 258.091 134.466 264.328 134.466 264.328L126.784 291.145L126.131 293.422L122.125 292.674L117.764 291.856L116.963 291.707L115.537 291.438L114.62 291.266L114.307 291.21L112.798 290.926L113.255 288.905L113.492 287.84L119.991 259.043L120.14 258.379L120.299 257.677C120.299 257.677 119.465 255.599 120.713 254.349C121.078 253.968 121.345 253.504 121.491 252.997C121.636 252.49 121.655 251.956 121.547 251.44C121.506 251.396 121.469 251.35 121.435 251.3C121.288 251.098 121.186 250.867 121.137 250.622C121.025 250.101 121.123 249.371 121.966 248.53C122.204 248.279 122.403 247.994 122.558 247.684C123.825 245.291 124.463 240.22 124.463 240.22C124.463 240.22 125.591 200.06 129.281 193.925C129.426 193.657 129.632 193.426 129.882 193.251C134.047 190.76 174.042 193.251 174.042 193.251C174.042 193.251 174.098 193.539 174.186 194.087C174.666 197.169 176.041 208.495 173.213 224.009Z" fill="#2F2E41"/>
<path d="M171.902 150.228L173.07 143.209L194.576 146.82L225.089 148.998C225.751 148.267 226.632 147.769 227.6 147.578C228.569 147.387 229.574 147.514 230.465 147.938C231.356 148.363 232.085 149.063 232.545 149.935C233.004 150.807 233.17 151.804 233.016 152.777C232.862 153.75 232.397 154.647 231.69 155.335C230.984 156.023 230.073 156.465 229.095 156.596C228.116 156.726 227.121 156.537 226.259 156.058C225.396 155.579 224.712 154.834 224.307 153.936L205.593 155.192L171.902 150.228Z" fill="#FFB6B6"/>
<path d="M155.826 145.37L157.345 139.104C157.345 139.104 165.591 137.59 172.11 139.039L196.636 143.734L194.651 158.525L155.826 145.37Z" fill="#478F9A"/>
<path d="M98.8992 196.962L112.621 167.224L122.634 146.184L131.319 151.283L104.284 200.234C104.521 201.107 104.494 202.03 104.205 202.887C103.917 203.744 103.38 204.497 102.662 205.05C101.945 205.603 101.08 205.931 100.175 205.993C99.271 206.055 98.3686 205.848 97.5821 205.398C96.7957 204.949 96.1605 204.277 95.757 203.467C95.3535 202.657 95.1997 201.746 95.3151 200.849C95.4305 199.952 95.81 199.11 96.4054 198.428C97.0009 197.746 97.7856 197.256 98.6603 197.019C98.7395 196.998 98.8192 196.978 98.8994 196.961L98.8992 196.962Z" fill="#FFB6B6"/>
<path d="M138.472 137.169L131.812 134.121C131.812 134.121 130.631 133.712 128.084 137.23C125.537 140.748 103.63 173.942 103.63 173.942L117.541 180.216L138.472 137.169Z" fill="#478F9A"/>
<path d="M171.987 317.646L163.317 311.669V307.77L162.083 307.844L155.84 308.216L154.196 308.313L153.059 321.894L153.045 322.084H157.14L157.177 321.894L157.871 318.227L159.646 321.894L159.74 322.084H170.604C170.93 322.084 171.253 322.019 171.554 321.894C171.957 321.724 172.307 321.449 172.567 321.098C172.827 320.747 172.988 320.332 173.032 319.898C173.077 319.464 173.003 319.025 172.819 318.629C172.635 318.233 172.348 317.893 171.987 317.646H171.987Z" fill="#2F2E41"/>
<path d="M125.745 318.004L121.966 313.895L119.33 311.023L118.896 310.549L118.831 310.479L118.621 310.251L119.493 306.45L117.741 306.161L111.61 305.144L111.279 305.093L110.627 304.981L110.478 304.958L108.386 311.534L106.49 317.479L106.285 318.129L108.805 318.701L110.278 319.036L111.004 317.372L111.084 317.195L111.559 316.103V316.098L111.852 315.438L112.817 319.612L112.984 319.649L113.008 319.654L113.599 319.788L114.755 320.053L122.833 321.894L123.406 322.024C124.037 322.164 124.698 322.05 125.245 321.706C125.792 321.362 126.181 320.817 126.327 320.188C126.415 319.804 126.408 319.405 126.306 319.024C126.205 318.644 126.012 318.293 125.745 318.004Z" fill="#2F2E41"/>
<path d="M163.136 117.995C162.193 119.72 160.885 121.219 159.303 122.388C157.72 123.556 155.901 124.367 153.972 124.762C153.758 124.808 153.543 124.845 153.324 124.878C150.298 125.35 147.2 124.786 144.535 123.279C141.871 121.771 139.796 119.409 138.648 116.575C137.501 113.741 137.348 110.604 138.215 107.673C139.082 104.742 140.918 102.19 143.424 100.432C145.929 98.6736 148.958 97.8133 152.016 97.9906C155.074 98.168 157.982 99.3725 160.267 101.408C162.552 103.444 164.079 106.191 164.6 109.203C165.12 112.214 164.604 115.313 163.136 117.995Z" fill="#FFB6B6"/>
<path d="M157.741 99.6225C153.301 96.5764 149.391 96.1124 146.18 96.9764C145.764 96.3339 145.18 95.8167 144.491 95.4803C141.986 89.184 134.364 85.4027 127.822 87.2409C121.238 89.0909 116.696 96.3666 117.934 103.078C118.702 107.237 121.326 110.839 122.382 114.936C124.425 122.866 119.441 131.95 111.644 134.507C119.026 135.985 127.153 131.487 129.801 124.455C131.087 121.039 131.165 117.31 131.329 113.665C131.372 111.149 131.681 108.644 132.25 106.193C132.533 105.093 132.933 104.027 133.442 103.012C134.552 100.78 136.396 98.9959 138.665 97.9566C138.462 98.5836 138.411 99.2499 138.517 99.9003C138.622 100.551 138.882 101.167 139.273 101.698C137.542 103.861 136.599 106.201 136.599 107.603C133.003 114.161 138.146 119.793 144.72 123.382C147.342 124.82 150.369 125.347 153.324 124.878L153.599 123.707L153.972 124.762L155.216 128.299C156.651 128.991 158.073 129.75 159.483 130.576C158.948 128.066 158.514 125.561 158.216 123.112C157.803 119.778 159.242 114.815 160.281 111.797C160.924 109.937 161.255 107.983 161.258 106.016V105.93L162.269 109.169L165.95 107.603C165.265 103.685 165.95 99.2368 157.741 99.6225Z" fill="#2F2E41"/>
<path d="M129.464 189.511C129.947 187.601 129.947 185.601 129.464 183.692C128.63 180.782 130.297 179.535 130.297 179.535L130.714 134.646C132.474 132.89 137.19 132.861 139.828 132.998V131.021C139.828 130.293 140.118 129.595 140.634 129.08C141.15 128.565 141.85 128.276 142.579 128.276H154.78C155.51 128.276 156.21 128.565 156.726 129.08C157.241 129.595 157.531 130.293 157.531 131.021V133.39L161.11 133.446C167.341 133.91 172.793 140.049 172.793 140.049L167.377 160.831C167.377 160.831 169.044 177.873 171.127 179.951C173.21 182.029 172.377 183.276 172.377 183.276C172.377 183.276 171.127 187.848 173.627 189.511C176.126 191.173 174.46 194.083 174.46 194.083C174.46 194.083 129.464 194.914 128.214 193.667C126.964 192.42 129.464 189.511 129.464 189.511Z" fill="#478F9A"/>
<path d="M212.369 322.447C212.37 322.52 212.355 322.592 212.328 322.659C212.3 322.726 212.259 322.787 212.207 322.839C212.156 322.89 212.095 322.931 212.027 322.958C211.96 322.986 211.888 323 211.815 323H81.2349C81.0879 323 80.9469 322.942 80.8429 322.838C80.739 322.734 80.6805 322.594 80.6805 322.447C80.6805 322.3 80.739 322.16 80.8429 322.056C80.9469 321.952 81.0879 321.894 81.2349 321.894H211.815C211.888 321.894 211.96 321.908 212.027 321.936C212.095 321.963 212.156 322.004 212.207 322.055C212.259 322.107 212.3 322.168 212.328 322.235C212.355 322.302 212.37 322.374 212.369 322.447Z" fill="#CCCCCC"/>
</g>
<defs>
<clipPath id="clip0_4_339">
<rect width="274" height="323" fill="white"/>
</clipPath>
</defs>
</svg>
