<svg width="366" height="295" viewBox="0 0 366 295" fill="none" xmlns="http://www.w3.org/2000/svg">
<g clip-path="url(#clip0_7_853)">
<path d="M133.182 223.77C132.074 221.112 131.952 218.144 132.839 215.404C133.726 212.664 135.562 210.332 138.016 208.828C138.834 208.331 138.087 207.042 137.265 207.542C134.45 209.225 132.349 211.882 131.359 215.011C130.37 218.141 130.561 221.524 131.897 224.522C132.273 225.401 133.555 224.643 133.182 223.77H133.182Z" fill="#3F3D56"/>
<path d="M133.608 225.774C131.6 222.214 132.073 217.953 132.795 214.103C133.549 210.084 134.537 206.004 133.682 201.916C133.294 199.932 132.376 198.09 131.026 196.586C130.376 195.879 129.325 196.935 129.974 197.639C132.498 200.384 132.791 204.366 132.382 207.902C131.899 212.073 130.53 216.138 130.7 220.376C130.744 222.526 131.301 224.634 132.323 226.526C132.426 226.689 132.588 226.806 132.776 226.852C132.964 226.898 133.162 226.869 133.328 226.771C133.495 226.674 133.618 226.515 133.67 226.329C133.722 226.143 133.7 225.944 133.608 225.774L133.608 225.774Z" fill="#3F3D56"/>
<path d="M144.383 237.142H119.078C118.486 237.142 117.919 236.906 117.5 236.487C117.082 236.068 116.846 235.5 116.846 234.907V227.468C116.848 225.556 117.608 223.723 118.958 222.371C120.309 221.019 122.14 220.259 124.05 220.257H127.761C127.959 220.257 128.148 220.178 128.287 220.038C128.427 219.899 128.505 219.709 128.505 219.512V216.035C128.506 215.706 128.637 215.391 128.869 215.158C129.102 214.925 129.417 214.794 129.746 214.794H133.715C134.044 214.794 134.359 214.925 134.592 215.158C134.824 215.391 134.955 215.706 134.956 216.035V219.512C134.956 219.709 135.034 219.899 135.174 220.038C135.313 220.178 135.502 220.257 135.7 220.257H139.411C141.321 220.259 143.152 221.019 144.503 222.371C145.853 223.723 146.613 225.556 146.615 227.468V234.907C146.615 235.5 146.379 236.068 145.961 236.487C145.542 236.906 144.974 237.142 144.383 237.142Z" fill="#CCCCCC"/>
<path d="M132.119 192.465C132.652 195.295 131.992 197.795 130.646 198.049C129.3 198.303 127.776 196.215 127.244 193.385C126.711 190.554 128.349 185.848 128.349 185.848C128.349 185.848 131.587 189.635 132.119 192.465Z" fill="#478F9A"/>
<path d="M142.337 205.632C140.65 207.965 138.382 209.204 137.273 208.4C136.163 207.596 136.631 205.053 138.318 202.72C140.005 200.387 144.546 198.343 144.546 198.343C144.546 198.343 144.024 203.299 142.337 205.632Z" fill="#478F9A"/>
<path d="M86.5433 44.9819C85.4352 42.3237 85.3135 39.3566 86.2001 36.6164C87.0866 33.8763 88.923 31.5439 91.3775 30.0406C92.1949 29.5431 91.4477 28.2542 90.6263 28.7541C87.8109 30.4368 85.7097 33.0943 84.7204 36.2235C83.7311 39.3527 83.9224 42.7363 85.2581 45.7339C85.6336 46.6128 86.9162 45.8546 86.5433 44.9819H86.5433Z" fill="#3F3D56"/>
<path d="M86.969 46.9857C84.9614 43.4257 85.4339 39.1653 86.156 35.3154C86.9098 31.2965 87.8979 27.216 87.043 23.1285C86.6552 21.144 85.7374 19.3018 84.387 17.7978C83.7368 17.0909 82.6863 18.1466 83.3345 18.8513C85.8594 21.5962 86.1521 25.5781 85.7426 29.1145C85.2596 33.2855 83.8906 37.35 84.0606 41.5884C84.105 43.7383 84.6615 45.8465 85.6838 47.7378C85.7869 47.9012 85.9494 48.0182 86.137 48.064C86.3246 48.1098 86.5227 48.0809 86.6894 47.9834C86.8561 47.8858 86.9785 47.7273 87.0307 47.5411C87.0828 47.355 87.0608 47.1559 86.9691 46.9858L86.969 46.9857Z" fill="#3F3D56"/>
<path d="M97.7435 58.3543H72.4393C71.8474 58.3537 71.2799 58.118 70.8613 57.699C70.4427 57.2801 70.2073 56.712 70.2066 56.1195V48.6797C70.2088 46.7679 70.9685 44.9351 72.3191 43.5832C73.6696 42.2314 75.5007 41.471 77.4107 41.4688H81.1221C81.3194 41.4686 81.5086 41.3901 81.6481 41.2504C81.7877 41.1107 81.8661 40.9214 81.8664 40.7239V37.2474C81.8667 36.9183 81.9975 36.6027 82.2301 36.3699C82.4626 36.1372 82.7779 36.0062 83.1068 36.0059H87.076C87.4049 36.0062 87.7202 36.1372 87.9527 36.3699C88.1852 36.6027 88.316 36.9183 88.3164 37.2474V40.7239C88.3166 40.9214 88.3951 41.1107 88.5346 41.2504C88.6742 41.3901 88.8633 41.4686 89.0607 41.4688H92.7721C94.6821 41.471 96.5132 42.2314 97.8637 43.5832C99.2143 44.9351 99.974 46.7679 99.9762 48.6797V56.1195C99.9755 56.712 99.7401 57.2801 99.3215 57.699C98.9029 58.118 98.3354 58.3537 97.7435 58.3543Z" fill="#CCCCCC"/>
<path d="M85.4803 13.6771C86.0131 16.5073 85.3535 19.0074 84.0071 19.2614C82.6607 19.5153 81.1373 17.4269 80.6045 14.5967C80.0718 11.7665 81.7103 7.06024 81.7103 7.06024C81.7103 7.06024 84.9476 10.8469 85.4803 13.6771Z" fill="#478F9A"/>
<path d="M95.698 26.844C94.0109 29.1769 91.7435 30.4161 90.6337 29.612C89.5238 28.8078 89.9918 26.2647 91.679 23.9318C93.3661 21.5989 97.9071 19.5547 97.9071 19.5547C97.9071 19.5547 97.3852 24.5111 95.698 26.844Z" fill="#478F9A"/>
<path d="M36.2196 135.084H15.8771V142.534H36.2196V135.084Z" fill="#478F9A"/>
<path d="M36.2196 159.419H15.8771V166.869H36.2196V159.419Z" fill="#478F9A"/>
<path d="M160.26 294.503H8.43472C6.19846 294.501 4.05452 293.611 2.47324 292.028C0.89197 290.445 0.00250696 288.299 0 286.061V8.44276C0.00250696 6.20437 0.89197 4.05838 2.47324 2.4756C4.05452 0.892821 6.19846 0.00250936 8.43472 0H160.26C162.496 0.00251985 164.64 0.892831 166.221 2.47561C167.802 4.05839 168.692 6.20438 168.694 8.44276V286.061C168.692 288.299 167.802 290.445 166.221 292.028C164.64 293.611 162.496 294.501 160.26 294.503ZM8.43472 0.993266C6.46156 0.995501 4.56985 1.78107 3.17462 3.17764C1.77938 4.5742 0.994552 6.46772 0.99232 8.44276V286.061C0.994552 288.036 1.77938 289.929 3.17462 291.326C4.56985 292.722 6.46156 293.508 8.43472 293.51H160.26C162.233 293.508 164.124 292.722 165.52 291.326C166.915 289.929 167.7 288.036 167.702 286.061V8.44276C167.7 6.46772 166.915 4.5742 165.52 3.17764C164.124 1.78107 162.233 0.995501 160.26 0.993266H8.43472Z" fill="#3F3D56"/>
<path d="M168.198 57.3376H0.496216V58.3308H168.198V57.3376Z" fill="#3F3D56"/>
<path d="M168.198 116.949H0.496216V117.943H168.198V116.949Z" fill="#3F3D56"/>
<path d="M168.198 176.561H0.496216V177.554H168.198V176.561Z" fill="#3F3D56"/>
<path d="M168.198 236.172H0.496216V237.166H168.198V236.172Z" fill="#3F3D56"/>
<path d="M34.7312 177.795H17.8618C17.2041 177.794 16.5735 177.532 16.1084 177.066C15.6434 176.601 15.3817 175.97 15.381 175.311V127.138C15.3817 126.48 15.6434 125.849 16.1084 125.383C16.5735 124.918 17.2041 124.656 17.8618 124.655H34.7312C35.3889 124.656 36.0195 124.918 36.4846 125.383C36.9496 125.849 37.2112 126.48 37.212 127.138V175.311C37.2112 175.97 36.9496 176.601 36.4846 177.066C36.0195 177.532 35.3889 177.794 34.7312 177.795ZM17.8618 125.648C17.4671 125.649 17.0888 125.806 16.8098 126.085C16.5307 126.364 16.3737 126.743 16.3733 127.138V175.311C16.3737 175.706 16.5307 176.085 16.8098 176.364C17.0888 176.644 17.4671 176.801 17.8618 176.801H34.7312C35.1258 176.801 35.5042 176.644 35.7832 176.364C36.0623 176.085 36.2192 175.706 36.2197 175.311V127.138C36.2192 126.743 36.0623 126.364 35.7832 126.085C35.5042 125.806 35.1258 125.649 34.7312 125.648H17.8618Z" fill="#3F3D56"/>
<path d="M67.4777 135.084H47.1352V142.534H67.4777V135.084Z" fill="#478F9A"/>
<path d="M67.4777 159.419H47.1352V166.869H67.4777V159.419Z" fill="#478F9A"/>
<path d="M65.9893 177.795H49.1198C48.4621 177.794 47.8316 177.532 47.3665 177.066C46.9014 176.601 46.6398 175.97 46.639 175.311V127.138C46.6398 126.48 46.9014 125.849 47.3665 125.383C47.8316 124.918 48.4621 124.656 49.1198 124.655H65.9893C66.647 124.656 67.2775 124.918 67.7426 125.383C68.2077 125.849 68.4693 126.48 68.4701 127.138V175.311C68.4693 175.97 68.2077 176.601 67.7426 177.066C67.2775 177.532 66.647 177.794 65.9893 177.795ZM49.1198 125.648C48.7252 125.649 48.3469 125.806 48.0678 126.085C47.7888 126.364 47.6318 126.743 47.6314 127.138V175.311C47.6318 175.706 47.7888 176.085 48.0678 176.364C48.3469 176.644 48.7252 176.801 49.1198 176.801H65.9893C66.3839 176.801 66.7622 176.644 67.0413 176.364C67.3203 176.085 67.4773 175.706 67.4777 175.311V127.138C67.4773 126.743 67.3203 126.364 67.0413 126.085C66.7622 125.806 66.3839 125.649 65.9893 125.648H49.1198Z" fill="#3F3D56"/>
<path d="M117.094 74.9916H96.7512V82.4411H117.094V74.9916Z" fill="#478F9A"/>
<path d="M117.094 99.3266H96.7512V106.776H117.094V99.3266Z" fill="#478F9A"/>
<path d="M115.605 117.702H98.7358C98.0781 117.701 97.4475 117.439 96.9825 116.974C96.5174 116.508 96.2558 115.877 96.255 115.219V67.0454C96.2558 66.3871 96.5174 65.7559 96.9825 65.2904C97.4475 64.8249 98.0781 64.563 98.7358 64.5623H115.605C116.263 64.563 116.894 64.8249 117.359 65.2904C117.824 65.7559 118.085 66.3871 118.086 67.0454V115.219C118.085 115.877 117.824 116.508 117.359 116.974C116.894 117.439 116.263 117.701 115.605 117.702ZM98.7358 65.5555C98.3412 65.556 97.9628 65.7131 97.6838 65.9924C97.4047 66.2717 97.2478 66.6504 97.2473 67.0454V115.219C97.2478 115.614 97.4047 115.993 97.6838 116.272C97.9628 116.551 98.3412 116.708 98.7358 116.709H115.605C116 116.708 116.378 116.551 116.657 116.272C116.936 115.993 117.093 115.614 117.094 115.219V67.0454C117.093 66.6504 116.936 66.2717 116.657 65.9924C116.378 65.7131 116 65.556 115.605 65.5555H98.7358Z" fill="#3F3D56"/>
<path d="M148.352 74.9916H128.009V82.4411H148.352V74.9916Z" fill="#478F9A"/>
<path d="M148.352 99.3266H128.009V106.776H148.352V99.3266Z" fill="#478F9A"/>
<path d="M146.863 117.702H129.994C129.336 117.701 128.706 117.439 128.241 116.974C127.775 116.508 127.514 115.877 127.513 115.219V67.0454C127.514 66.3871 127.775 65.7559 128.241 65.2904C128.706 64.8249 129.336 64.563 129.994 64.5623H146.863C147.521 64.563 148.152 64.8249 148.617 65.2904C149.082 65.7559 149.343 66.3871 149.344 67.0454V115.219C149.343 115.877 149.082 116.508 148.617 116.974C148.152 117.439 147.521 117.701 146.863 117.702ZM129.994 65.5555C129.599 65.556 129.221 65.7131 128.942 65.9924C128.663 66.2717 128.506 66.6504 128.505 67.0454V115.219C128.506 115.614 128.663 115.993 128.942 116.272C129.221 116.551 129.599 116.708 129.994 116.709H146.863C147.258 116.708 147.636 116.551 147.915 116.272C148.194 115.993 148.351 115.614 148.352 115.219V67.0454C148.351 66.6504 148.194 66.2717 147.915 65.9924C147.636 65.7131 147.258 65.556 146.863 65.5555H129.994Z" fill="#3F3D56"/>
<path d="M92.4295 130.635L73.387 137.798L76.0049 144.771L95.0474 137.609L92.4295 130.635Z" fill="#478F9A"/>
<path d="M100.981 153.415L81.9388 160.578L84.5567 167.551L103.599 160.389L100.981 153.415Z" fill="#478F9A"/>
<path d="M89.3802 177.24C88.8757 177.239 88.3834 177.084 87.9688 176.796C87.5542 176.509 87.237 176.101 87.0592 175.629L70.1301 130.534C69.8996 129.917 69.9227 129.235 70.1944 128.635C70.4661 128.036 70.9643 127.569 71.5797 127.336L87.3711 121.397C87.6761 121.282 88.0007 121.228 88.3263 121.239C88.6519 121.25 88.9722 121.325 89.2689 121.46C89.5656 121.595 89.8328 121.786 90.0554 122.025C90.278 122.263 90.4515 122.543 90.566 122.848L107.495 167.942C107.726 168.559 107.703 169.242 107.431 169.841C107.159 170.441 106.661 170.908 106.046 171.14H106.046L90.2541 177.08C89.9748 177.185 89.6787 177.24 89.3802 177.24ZM88.2446 122.23C88.0655 122.231 87.8878 122.263 87.7202 122.326L71.9288 128.266C71.5596 128.405 71.2607 128.686 71.0976 129.045C70.9345 129.405 70.9207 129.815 71.059 130.185L87.9881 175.279C88.0569 175.463 88.161 175.63 88.2945 175.773C88.4281 175.916 88.5884 176.031 88.7664 176.112C88.9444 176.193 89.1366 176.238 89.332 176.244C89.5273 176.251 89.7221 176.219 89.905 176.15L105.696 170.211C106.066 170.071 106.365 169.791 106.528 169.431C106.691 169.071 106.705 168.662 106.566 168.292L89.6371 123.197C89.5304 122.913 89.3401 122.669 89.0914 122.497C88.8426 122.324 88.5473 122.231 88.2446 122.23Z" fill="#3F3D56"/>
<path d="M23.9595 71.536L4.91699 78.6984L7.53489 85.6718L26.5774 78.5094L23.9595 71.536Z" fill="#478F9A"/>
<path d="M32.5112 94.3158L13.4688 101.478L16.0866 108.452L35.1291 101.289L32.5112 94.3158Z" fill="#478F9A"/>
<path d="M20.9101 118.14C20.4056 118.139 19.9134 117.985 19.4988 117.697C19.0842 117.409 18.7669 117.002 18.5892 116.529L1.66009 71.4346C1.42952 70.8181 1.45264 70.1352 1.72437 69.5358C1.99611 68.9363 2.49428 68.4692 3.10963 68.2368L18.9011 62.2973C19.2061 62.1826 19.5306 62.1291 19.8562 62.1399C20.1819 62.1507 20.5022 62.2257 20.7989 62.3604C21.0955 62.4952 21.3628 62.6871 21.5854 62.9253C21.8079 63.1634 21.9814 63.4432 22.096 63.7484L39.0251 108.843C39.2556 109.46 39.2325 110.143 38.9608 110.742C38.689 111.341 38.1909 111.809 37.5755 112.041H37.5755L21.7841 117.98C21.5048 118.086 21.2087 118.14 20.9101 118.14ZM19.7746 63.1311C19.5954 63.1313 19.4178 63.1638 19.2501 63.2271L3.45879 69.1666C3.08955 69.306 2.79061 69.5863 2.62756 69.946C2.4645 70.3057 2.45063 70.7155 2.589 71.0854L19.5181 116.18C19.5868 116.363 19.6909 116.531 19.8245 116.674C19.958 116.817 20.1184 116.932 20.2964 117.013C20.4744 117.094 20.6666 117.139 20.8619 117.145C21.0573 117.152 21.252 117.12 21.435 117.051L37.2264 111.111C37.5956 110.972 37.8946 110.691 38.0576 110.332C38.2207 109.972 38.2345 109.562 38.0962 109.192L21.1671 64.0977C21.0604 63.8141 20.87 63.5698 20.6213 63.3972C20.3726 63.2245 20.0773 63.1317 19.7746 63.1311Z" fill="#3F3D56"/>
<path d="M294.092 124.158C302.587 124.158 309.473 117.265 309.473 108.763C309.473 100.26 302.587 93.367 294.092 93.367C285.597 93.367 278.711 100.26 278.711 108.763C278.711 117.265 285.597 124.158 294.092 124.158Z" fill="#2F2E41"/>
<path d="M225.761 179.022C226.488 179.304 227.267 179.422 228.045 179.37C228.822 179.318 229.579 179.095 230.261 178.719C230.943 178.342 231.535 177.82 231.994 177.19C232.453 176.559 232.768 175.836 232.918 175.071L275.209 148.362L267.511 139.688L228.343 168.687C227.041 168.52 225.724 168.838 224.641 169.579C223.558 170.32 222.784 171.432 222.466 172.706C222.148 173.98 222.307 175.327 222.915 176.491C223.522 177.655 224.535 178.555 225.761 179.022Z" fill="#FFB8B8"/>
<path d="M266.38 155.463C266.005 155.464 265.637 155.37 265.308 155.191C264.979 155.012 264.701 154.753 264.498 154.438L259.6 146.821C259.291 146.34 259.178 145.759 259.284 145.197C259.39 144.635 259.707 144.135 260.17 143.8L276.558 131.944C277.353 131.369 278.256 130.959 279.212 130.739C280.168 130.518 281.159 130.492 282.125 130.662C283.092 130.832 284.014 131.194 284.839 131.727C285.663 132.26 286.372 132.953 286.924 133.765C287.475 134.577 287.859 135.492 288.052 136.455C288.244 137.418 288.242 138.41 288.045 139.372C287.848 140.334 287.46 141.247 286.904 142.056C286.348 142.866 285.636 143.555 284.809 144.084L267.578 155.112C267.22 155.342 266.805 155.463 266.38 155.463Z" fill="#2F2E41"/>
<path d="M273.697 288.469L267.615 288.469L264.72 264.984L273.698 264.985L273.697 288.469Z" fill="#FFB8B8"/>
<path d="M263.269 286.729H275.001V294.123H255.883C255.883 293.152 256.074 292.19 256.445 291.293C256.817 290.396 257.361 289.581 258.047 288.895C258.732 288.208 259.547 287.664 260.443 287.292C261.339 286.92 262.299 286.729 263.269 286.729Z" fill="#2F2E41"/>
<path d="M302.094 283.917L296.238 285.563L287.109 263.735L295.753 261.306L302.094 283.917Z" fill="#FFB8B8"/>
<path d="M291.585 285.063L302.879 281.89L304.876 289.008L286.47 294.18C286.208 293.245 286.132 292.268 286.247 291.303C286.362 290.339 286.666 289.408 287.141 288.561C287.616 287.714 288.253 286.97 289.015 286.37C289.778 285.77 290.651 285.326 291.585 285.063Z" fill="#2F2E41"/>
<path d="M318.483 247.876L294.868 219.98L309.198 202.576C309.408 202.321 309.672 202.115 309.971 201.975C310.27 201.834 310.597 201.761 310.927 201.762C311.258 201.763 311.584 201.838 311.882 201.98C312.18 202.123 312.443 202.33 312.652 202.586L334.335 229.222L318.483 247.876Z" fill="#478F9A"/>
<path d="M295.821 220.187C296.169 219.56 296.601 218.983 297.104 218.472L310.782 204.593C311.318 204.046 312.04 203.722 312.804 203.684C314.367 203.61 316.93 203.768 317.644 205.484L299.178 220.607L295.821 220.187Z" fill="#F2F2F2"/>
<path d="M319.304 253.779C318.251 253.748 317.227 253.423 316.348 252.842L316.283 252.775L294.654 219.665L298.243 219.317L317.478 204.3C317.72 204.11 318 203.973 318.298 203.897C318.597 203.821 318.908 203.807 319.211 203.857C319.515 203.907 319.806 204.019 320.064 204.186C320.323 204.354 320.544 204.573 320.714 204.83L341.739 236.683C342.062 237.175 342.178 237.774 342.063 238.351C341.948 238.928 341.611 239.437 341.125 239.768L320.779 253.5C320.31 253.686 319.809 253.781 319.304 253.779Z" fill="#478F9A"/>
<path d="M311.655 231.13C311.451 231.13 311.251 231.08 311.071 230.985C310.891 230.889 310.738 230.751 310.624 230.582L308.139 226.888C307.956 226.615 307.888 226.28 307.951 225.957C308.014 225.633 308.203 225.349 308.475 225.164L321.222 216.575C321.496 216.391 321.83 216.324 322.153 216.387C322.475 216.45 322.76 216.639 322.944 216.911L325.429 220.605C325.612 220.879 325.68 221.214 325.617 221.537C325.554 221.86 325.365 222.145 325.092 222.329L312.346 230.919C312.141 231.056 311.901 231.13 311.655 231.13Z" fill="#3F3D56"/>
<path d="M263.758 284.918C263.08 284.915 262.427 284.659 261.927 284.199C261.428 283.739 261.118 283.109 261.06 282.432C259.977 270.123 254.547 208.086 253.951 195.558C253.288 181.638 264.862 159.616 264.979 159.395L265.06 159.244L270.78 159.96V160.625L276.225 161.267L286.763 162.287L289.78 199.196L291.113 224.228L303.646 275.353C303.788 275.919 303.702 276.519 303.406 277.022C303.11 277.525 302.629 277.891 302.065 278.042L291.158 281.019C290.591 281.171 289.987 281.095 289.475 280.806C288.964 280.518 288.586 280.04 288.423 279.475L278.154 243.366C278.104 243.192 277.992 243.041 277.839 242.943C277.686 242.845 277.503 242.806 277.324 242.834C277.144 242.862 276.981 242.955 276.865 243.094C276.749 243.234 276.688 243.412 276.694 243.593L277.78 278.802C277.786 279.164 277.717 279.523 277.579 279.857C277.441 280.191 277.237 280.493 276.978 280.745C274.478 283.095 267.872 284.35 264.156 284.889C264.024 284.908 263.891 284.918 263.758 284.918Z" fill="#2F2E41"/>
<path d="M296.533 129.816C294.802 128.01 283.398 130.492 280.866 133.153L263.532 161.514L292.199 166.852L298.533 130.817L296.533 129.816Z" fill="#478F9A"/>
<path d="M289.019 201.871C288.401 201.871 287.788 201.769 287.204 201.568C285.539 200.997 283.497 200.398 281.137 199.791C270.8 197.13 267.151 188.612 270.29 174.472L270.369 174.114C273.317 160.701 278.873 148 286.721 136.736L287.937 134.988C289.404 132.879 291.458 131.248 293.844 130.298C296.23 129.349 298.842 129.122 301.355 129.646C306.007 130.606 308.504 131.998 308.778 133.782C309.316 137.283 298.927 179.606 294.436 197.64C294.135 198.85 293.438 199.923 292.456 200.69C291.474 201.457 290.264 201.873 289.019 201.871L289.019 201.871Z" fill="#2F2E41"/>
<path d="M253.409 196.438C253.139 196.438 252.87 196.396 252.613 196.314L249.262 195.241C248.916 195.13 248.596 194.948 248.324 194.706C248.052 194.464 247.834 194.169 247.682 193.838C247.531 193.507 247.45 193.148 247.446 192.784C247.441 192.42 247.512 192.059 247.654 191.724L265.432 149.955C268.839 141.987 274.795 135.379 282.363 131.169H282.363C282.473 131.108 282.594 131.071 282.719 131.059C282.843 131.048 282.969 131.062 283.088 131.101C283.198 131.136 283.299 131.193 283.384 131.27C283.47 131.346 283.539 131.439 283.587 131.544C285.678 136.148 274.298 157.937 265.153 175.444C260.471 184.409 256.427 192.151 255.967 194.359C255.844 194.947 255.523 195.474 255.057 195.853C254.591 196.232 254.009 196.438 253.409 196.438Z" fill="#2F2E41"/>
<path d="M308.411 205.955C309.035 205.489 309.55 204.891 309.919 204.204C310.287 203.517 310.501 202.757 310.544 201.978C310.588 201.199 310.461 200.421 310.171 199.697C309.881 198.972 309.436 198.321 308.868 197.787L308.727 147.735L297.295 149.655L301.034 198.276C300.202 199.291 299.771 200.577 299.823 201.889C299.875 203.201 300.405 204.449 301.315 205.395C302.224 206.342 303.448 206.922 304.756 207.025C306.064 207.128 307.364 206.748 308.411 205.955Z" fill="#FFB8B8"/>
<path d="M299.103 160.152C298.536 160.152 297.991 159.937 297.578 159.549C297.164 159.161 296.913 158.631 296.876 158.065L295.546 137.869C295.42 135.926 296.07 134.012 297.352 132.548C298.634 131.083 300.444 130.187 302.385 130.057C303.382 129.991 304.382 130.13 305.323 130.464C306.264 130.799 307.127 131.322 307.859 132.002C308.591 132.682 309.177 133.504 309.58 134.419C309.984 135.333 310.196 136.321 310.205 137.321L310.386 157.792C310.39 158.383 310.161 158.952 309.747 159.374C309.334 159.797 308.77 160.038 308.18 160.046L299.13 160.153L299.103 160.152Z" fill="#2F2E41"/>
<path d="M290.924 124.941C297.654 124.941 303.11 119.48 303.11 112.744C303.11 106.007 297.654 100.546 290.924 100.546C284.194 100.546 278.738 106.007 278.738 112.744C278.738 119.48 284.194 124.941 290.924 124.941Z" fill="#FFB8B8"/>
<path d="M301.056 121.279C301.965 118.384 302.799 114.97 301.001 112.527C299.705 110.766 297.378 110.085 295.195 109.988C293.013 109.89 290.824 110.26 288.647 110.087C286.469 109.914 284.167 109.053 283.061 107.168C281.626 104.723 282.841 101.355 285.148 99.7085C287.454 98.0619 290.5 97.832 293.307 98.2155C296.859 98.6376 300.197 100.133 302.879 102.501C305.488 104.912 307.188 108.386 307.113 111.938C307.037 115.491 305.046 119.029 301.874 120.624" fill="#2F2E41"/>
<path d="M298.018 94.6255C295.1 93.726 293.755 89.8654 295.059 87.1031C296.364 84.3407 299.699 82.8942 302.727 83.279C305.755 83.6637 308.424 85.6084 310.264 88.046C312.105 90.4835 313.215 93.3892 314.14 96.3009C315.065 99.2126 315.835 102.187 317.099 104.969C319.104 109.242 322.198 112.912 326.07 115.609C329.941 118.307 334.453 119.937 339.153 120.336C341.202 120.484 343.328 120.378 345.195 119.521C347.062 118.664 348.628 116.936 348.837 114.89C349.899 122.155 345.677 129.877 338.99 132.896C332.303 135.915 323.726 133.973 318.988 128.367C314.358 122.888 313.641 115.153 313.753 107.979C313.783 106.011 313.856 104.007 313.313 102.115C312.77 100.224 311.485 98.4262 309.613 97.8255C308.102 97.3409 306.466 97.6903 304.918 98.0338C303.369 98.3774 301.725 98.7081 300.226 98.1902C298.727 97.6722 297.519 95.9656 298.124 94.4977" fill="#2F2E41"/>
<path d="M346.23 295H215.244C215.112 295 214.986 294.948 214.893 294.855C214.8 294.761 214.748 294.635 214.748 294.503C214.748 294.372 214.8 294.245 214.893 294.152C214.986 294.059 215.112 294.007 215.244 294.007H346.23C346.362 294.007 346.488 294.059 346.581 294.152C346.674 294.245 346.726 294.372 346.726 294.503C346.726 294.635 346.674 294.761 346.581 294.855C346.488 294.948 346.362 295 346.23 295Z" fill="#CCCCCC"/>
</g>
<defs>
<clipPath id="clip0_7_853">
<rect width="366" height="295" fill="white"/>
</clipPath>
</defs>
</svg>
