<svg width="364" height="270" viewBox="0 0 364 270" fill="none" xmlns="http://www.w3.org/2000/svg">
<g clip-path="url(#clip0_7_745)">
<path d="M329.603 268.749H252.422V266.378C252.422 264.319 253.239 262.344 254.693 260.888C256.147 259.432 258.119 258.614 260.176 258.614H321.849C323.905 258.614 325.877 259.432 327.332 260.888C328.786 262.344 329.603 264.319 329.603 266.378V268.749V268.749Z" fill="#E6E6E6"/>
<path d="M289.206 259.087L291.553 258.141C266.995 197.101 269.361 120.096 290.121 54.0383C292.587 46.3846 292.764 38.176 290.632 30.4225C288.5 22.6689 284.151 15.7085 278.12 10.3977C266.07 -0.369442 249.458 -2.99242 234.764 3.55171C220.259 10.0123 218.26 21.2657 218.26 32.4644H220.791C220.791 20.5104 223.342 11.4126 235.792 5.86691C249.564 -0.266131 265.137 2.19384 276.435 12.2886C282.1 17.2765 286.185 23.8139 288.187 31.0964C290.19 38.3789 290.023 46.0887 287.707 53.2774C266.708 120.098 264.48 197.632 289.206 259.087Z" fill="#E6E6E6"/>
<path d="M220.158 69.8392C225.05 69.8392 229.015 65.8686 229.015 60.9706C229.015 56.0726 225.05 52.102 220.158 52.102C215.267 52.102 211.301 56.0726 211.301 60.9706C211.301 65.8686 215.267 69.8392 220.158 69.8392Z" fill="#E6E6E6"/>
<path d="M206.518 76.4311V59.6273H209.127V76.4311C209.876 76.7343 210.496 77.2887 210.881 77.9994C211.266 78.71 211.392 79.5326 211.238 80.3262C211.083 81.1198 210.658 81.835 210.035 82.3492C209.412 82.8634 208.63 83.1446 207.822 83.1446C207.015 83.1446 206.233 82.8634 205.61 82.3492C204.987 81.835 204.562 81.1198 204.407 80.3262C204.253 79.5326 204.379 78.71 204.764 77.9994C205.149 77.2887 205.769 76.7343 206.518 76.4311Z" fill="#E6E6E6"/>
<path d="M193.904 46.7174C193.908 42.8546 195.443 39.1512 198.171 36.4198C200.898 33.6884 204.597 32.1519 208.454 32.1475H232.494C236.353 32.1475 240.054 33.6826 242.783 36.4149C245.512 39.1473 247.045 42.8532 247.045 46.7174C247.045 50.5815 245.512 54.2874 242.783 57.0198C240.054 59.7522 236.353 61.2872 232.494 61.2872H208.454C204.597 61.2829 200.898 59.7464 198.171 57.015C195.443 54.2836 193.908 50.5802 193.904 46.7174V46.7174Z" fill="#478F9A"/>
<path d="M160.033 136.943C162.447 106.022 174.787 91.2892 166.885 82.0503C159.316 73.2005 137.995 75.0287 124.302 83.5207C87.3696 106.426 73.8389 197.716 121.365 242.318C166.528 284.701 252.119 271.127 271.141 236.437C275.579 228.342 279.105 214.153 272.609 205.559C256.482 184.224 197.849 222.868 171.78 198.698C156.331 184.374 158.708 153.913 160.033 136.943Z" fill="#3F3D56"/>
<path d="M188.265 121.581C187.368 121.994 186.667 122.742 186.312 123.664C185.957 124.587 185.975 125.612 186.363 126.521C186.445 126.705 186.542 126.881 186.653 127.049L178.725 137.647L182.681 143.567L191.973 127.873C192.631 127.359 193.101 126.641 193.309 125.831C193.517 125.022 193.451 124.166 193.123 123.398C192.932 122.962 192.656 122.569 192.313 122.24C191.97 121.911 191.566 121.653 191.123 121.48C190.68 121.308 190.208 121.224 189.733 121.234C189.258 121.245 188.79 121.348 188.355 121.54C188.325 121.553 188.295 121.567 188.265 121.581Z" fill="#FFB6B6"/>
<path d="M188.258 139.855C188.777 140.316 187.338 140.884 185.816 139.987C185.38 139.728 185.194 139.62 185.145 139.688C185.023 139.86 185.738 141.124 185.547 143.933C185.429 145.609 182.649 148.76 179.492 151.833C175.224 155.99 170.261 159.999 170.261 159.999L168.518 158.602L150.247 143.933L147.163 139.659C147.445 137.971 147.87 136.31 148.431 134.694C149.204 132.457 150.123 130.273 151.182 128.156C151.749 127.004 152.332 125.906 152.89 124.897L162.679 135.699L170.882 144.746C170.882 144.746 173.271 140.894 175.121 139.845C175.357 139.694 175.626 139.602 175.904 139.576C177.774 139.487 177.887 138.468 175.718 136.248C173.55 134.028 176.286 136.101 178.215 135.503C180.143 134.905 178.215 135.503 178.621 134.008C179.027 132.513 184.436 129.514 184.436 129.514L184.661 129.715L188.748 133.327L189.918 134.361C189.918 134.361 188.64 137.87 188.288 138.61C187.935 139.35 187.744 139.389 188.258 139.855Z" fill="#478F9A"/>
<path d="M295.997 207.94L296.196 202.533L275.467 199.192L275.173 207.17L295.997 207.94Z" fill="#FFB6B6"/>
<path d="M292.234 209.567L292.038 200.911L295.733 201.048L301.699 193.046C301.994 192.651 302.407 192.36 302.878 192.217C303.349 192.073 303.854 192.084 304.318 192.248C304.783 192.412 305.183 192.721 305.46 193.128C305.737 193.536 305.877 194.022 305.859 194.515L305.48 204.797L301.759 206.435L305.389 207.262L305.246 211.139L292.234 209.567Z" fill="#2F2E41"/>
<path d="M179.329 210.044L244.987 211.711C244.987 211.711 273.341 213.351 279.993 209.018L287.008 208.131L287.388 197.813C287.388 197.813 283.098 197.845 280.632 196.694C278.166 195.543 279.88 194.135 277.528 195.52C275.177 196.904 275.425 197.071 273.607 196.434C271.789 195.798 188.416 183.073 188.416 183.073L179.329 210.044Z" fill="#2F2E41"/>
<path d="M265.849 205.567L269.667 201.74L256.74 185.172L251.105 190.821L265.849 205.567Z" fill="#FFB6B6"/>
<path d="M261.985 202.237L267.72 195.758L270.336 198.375L280.145 196.571C280.63 196.482 281.13 196.55 281.573 196.766C282.016 196.982 282.378 197.334 282.607 197.77C282.836 198.207 282.92 198.705 282.846 199.193C282.772 199.681 282.545 200.132 282.197 200.481L274.935 207.761L271.095 206.427L273.195 209.506L270.457 212.25L261.985 202.237Z" fill="#2F2E41"/>
<path d="M153.426 174.038L154.078 189.231C154.847 207.117 174.518 217.943 189.771 208.604C190.052 208.432 190.335 208.253 190.618 208.069C190.618 208.069 196.4 206.514 196.225 204.051C196.049 201.589 197.462 200.39 198.712 201.062C199.962 201.733 216.331 178.472 216.331 178.472C216.331 178.472 250.339 195.459 257.842 199.458C257.842 199.458 264.896 188.414 264.384 188.53C263.873 188.646 222.312 159.517 222.312 159.517C222.312 159.517 215.541 152.656 207.142 157.186C206.967 157.852 207.116 157.875 207.116 157.875L179.372 180.513L175.451 173.058L153.426 174.038Z" fill="#2F2E41"/>
<path d="M179.585 155.044C179.532 155.746 179.433 156.443 179.286 157.132C179.087 158.128 178.764 159.096 178.327 160.014C178.327 160.014 178.327 161.038 176.369 164.469C174.411 167.899 176.859 166.429 178.327 168.978C179.795 171.521 178.327 170.35 176.697 171.987C176.228 172.463 175.895 173.057 175.732 173.706C175.569 174.355 175.583 175.036 175.772 175.678C175.772 175.678 154.745 175.692 150.829 174.222C146.913 172.752 146.023 164.469 149.532 163.65C153.037 162.832 148.47 162.018 146.409 160.131C144.349 158.244 148.47 155.156 148.47 155.156C148.47 155.156 146.771 152.221 146.913 142.364C146.933 141.458 147.017 140.554 147.163 139.659C147.445 137.971 147.869 136.31 148.431 134.694C149.204 132.457 150.123 130.273 151.181 128.156C151.749 127.004 152.332 125.906 152.89 124.897C152.978 124.74 153.061 124.588 153.149 124.436C154.211 122.554 155.18 121.015 155.822 120.03C156.316 119.265 156.615 118.834 156.615 118.834L160.178 112.629L172.072 118.212L171.396 127.342L173.447 134.229L174.392 137.4L175.121 139.845L176.247 143.634C176.247 143.634 175.938 143.649 176.306 144.153C177.996 146.404 179.092 149.046 179.492 151.833C179.633 152.898 179.664 153.973 179.585 155.044V155.044Z" fill="#478F9A"/>
<path d="M213.933 156.028L213.71 155.956L185.242 146.776L195.733 112.315C195.942 111.629 196.303 110.999 196.791 110.473C197.278 109.948 197.878 109.539 198.546 109.279C199.214 109.02 199.932 108.915 200.646 108.973C201.36 109.032 202.051 109.252 202.668 109.616L220.86 120.379C222.3 121.23 223.396 122.561 223.955 124.138C224.515 125.716 224.503 127.441 223.922 129.01L213.933 156.028Z" fill="#2F2E41"/>
<path d="M214.049 158.218L185.352 148.965L195.842 114.504C196.051 113.818 196.413 113.188 196.9 112.663C197.388 112.137 197.988 111.728 198.656 111.468C199.323 111.209 200.041 111.104 200.755 111.162C201.469 111.221 202.161 111.441 202.778 111.806L221.838 121.335C224.702 123.028 224.635 127.412 223.305 131.008L214.049 158.218Z" fill="#478F9A"/>
<path d="M211.176 160.713C210.515 161.086 209.784 161.318 209.029 161.393C208.274 161.468 207.511 161.385 206.79 161.15L188.448 155.235C187.041 154.774 185.869 153.781 185.183 152.468C184.497 151.154 184.352 149.623 184.777 148.204L193.973 117.994C194.157 117.391 194.459 116.83 194.862 116.345C195.265 115.86 195.761 115.461 196.32 115.17C196.879 114.879 197.491 114.703 198.119 114.652C198.747 114.602 199.379 114.677 199.978 114.874L218.986 121.123C219.891 121.421 220.728 121.897 221.447 122.524C222.166 123.151 222.752 123.916 223.17 124.774C223.589 125.631 223.831 126.564 223.884 127.517C223.936 128.471 223.798 129.424 223.476 130.323L213.643 157.771C213.202 159.017 212.326 160.062 211.176 160.713V160.713Z" fill="#3F3D56"/>
<path d="M171.399 112.735C178.655 112.735 184.537 106.845 184.537 99.5799C184.537 92.3146 178.655 86.4248 171.399 86.4248C164.144 86.4248 158.262 92.3146 158.262 99.5799C158.262 106.845 164.144 112.735 171.399 112.735Z" fill="#FFB6B6"/>
<path d="M126.974 112.933C128.18 115.273 130.157 117.124 132.569 118.171C133.532 118.61 134.545 118.931 135.585 119.126C135.878 117.959 136.349 116.844 136.98 115.819C136.77 116.974 136.77 118.158 136.98 119.313C138.564 119.442 140.158 119.244 141.663 118.73C143.14 118.227 144.48 117.386 145.577 116.274C146.673 115.162 147.495 113.809 147.979 112.323C149.025 108.836 147.898 105.112 147.809 101.472C147.718 97.8318 149.444 93.478 153.053 93.0276C155.801 92.6841 155.461 92.9508 157.436 94.8949C154.674 97.9675 161.408 111.576 165.021 110.975C167.064 110.635 168.568 109.011 168.972 109.067C171.041 114.141 164.817 121.337 169.753 123.699L169.387 123.214C166.803 118.94 174.449 111.721 171.865 107.446C171.144 106.251 170.395 104.849 170.841 103.526C171.264 102.269 173.406 101.871 173.858 103.015C173.124 100.392 175.175 97.3123 177.899 97.0445C180.319 96.8054 180.179 97.4961 182.487 98.1263C182.782 97.131 183.206 96.179 183.75 95.2951C183.566 96.3035 183.543 97.3349 183.683 98.3504C184.515 98.4499 185.357 98.2714 186.078 97.8429C188.209 96.5638 188.272 93.262 186.808 91.2526C185.342 89.2427 182.885 88.2503 180.516 87.4994C180.494 82.4812 167.009 80.0788 164.529 84.7444C164.274 80.9668 159.949 78.422 156.224 79.0637C152.498 79.7055 149.559 82.6966 147.768 86.0306C145.976 89.3619 145.087 93.0921 143.775 96.6405C142.464 100.189 140.589 103.727 137.448 105.833C134.308 107.935 129.642 108.126 127.02 105.401C126.422 106.565 126.106 107.853 126.098 109.162C126.09 110.47 126.39 111.762 126.974 112.933V112.933Z" fill="#2F2E41"/>
<path d="M140.454 173.091C140.726 172.873 141.021 172.686 141.334 172.533C146.362 170.027 162 163.522 174.227 163.789C197.754 164.303 227.694 190.302 220.726 207.761C215.424 221.046 189.064 228.604 169.822 222.559C142.866 214.09 132.226 179.661 140.454 173.091Z" fill="#3F3D56"/>
<path d="M42.7864 268.799C35.0989 267.347 28.2941 232.668 43.419 215.588C48.6011 209.736 55.0649 207.189 63.6631 204.819C113.151 191.176 150.897 204.178 155.969 207.353C161.03 210.52 169.903 258.243 158.557 264.999C152.174 268.799 139.521 270.7 133.252 266.265C124.028 259.741 139.511 242.816 132.619 231.425C124.799 218.497 83.619 214.143 62.9731 226.99C40.9461 240.697 86.3804 277.035 42.7864 268.799Z" fill="#F2F2F2"/>
<path d="M94.1839 209.837H64.815C57.565 202.879 52.3812 196.174 56.5314 190.608C56.5314 189.008 57.1661 187.474 58.2959 186.342C59.4257 185.211 60.958 184.576 62.5558 184.576H96.4431C98.0408 184.576 99.5732 185.211 100.703 186.342C101.833 187.474 102.467 189.008 102.467 190.608C104.048 196.95 101.225 203.36 94.1839 209.837Z" fill="#CCCCCC"/>
<path d="M88.9095 176.981C88.6308 176.994 88.3549 176.921 88.1193 176.772C87.8836 176.622 87.6994 176.404 87.5918 176.146C87.4842 175.888 87.4583 175.604 87.5176 175.331C87.577 175.058 87.7186 174.81 87.9235 174.62L88.0167 174.249C88.0044 174.219 87.9921 174.19 87.9797 174.16C87.6989 173.496 87.2285 172.93 86.6275 172.533C86.0265 172.136 85.3218 171.925 84.6017 171.928C83.8817 171.931 83.1785 172.146 82.5804 172.548C81.9824 172.949 81.5162 173.519 81.2404 174.185C80.1382 176.843 78.7348 179.506 78.3893 182.317C78.2371 183.559 78.3013 184.818 78.579 186.039C75.9902 180.384 74.6459 174.238 74.6372 168.017C74.6367 166.456 74.7233 164.897 74.8967 163.345C75.0399 162.073 75.2387 160.811 75.493 159.557C76.8806 152.755 79.8597 146.379 84.1858 140.954C86.2797 139.81 87.973 138.051 89.0376 135.914C89.4233 135.145 89.6958 134.325 89.8469 133.479C89.6107 133.51 88.9563 129.908 89.1344 129.687C88.8053 129.186 88.2161 128.938 87.8566 128.45C86.0687 126.022 83.6054 126.446 82.3195 129.745C79.5724 131.133 79.5458 133.435 81.2314 135.65C82.3038 137.059 82.4512 138.965 83.3921 140.473C83.2952 140.597 83.1946 140.717 83.0978 140.842C81.3282 143.12 79.7859 145.567 78.493 148.146C78.8074 145.256 78.4321 142.333 77.398 139.616C76.35 137.085 74.3856 134.952 72.6557 132.764C70.5778 130.135 66.317 131.282 65.9509 134.615C65.9473 134.647 65.9439 134.679 65.9405 134.712C66.1974 134.857 66.449 135.011 66.6951 135.174C67.0042 135.381 67.2438 135.676 67.3824 136.022C67.5209 136.367 67.552 136.746 67.4716 137.11C67.3912 137.473 67.203 137.804 66.9316 138.059C66.6603 138.313 66.3185 138.48 65.951 138.536L65.9134 138.542C66.0049 139.47 66.1667 140.389 66.3974 141.291C64.1782 149.885 68.9693 153.015 75.8105 153.156C75.9615 153.233 76.1087 153.311 76.2597 153.385C74.9607 157.071 74.1459 160.91 73.8357 164.807C73.6602 167.106 73.6705 169.415 73.8667 171.712L73.8551 171.631C73.3594 169.077 71.9986 166.772 70.0023 165.106C67.0374 162.667 62.8486 161.769 59.65 159.808C59.31 159.59 58.9148 159.473 58.5108 159.472C58.1068 159.471 57.711 159.586 57.37 159.803C57.029 160.02 56.7571 160.33 56.5863 160.696C56.4154 161.063 56.3529 161.471 56.4059 161.872C56.4102 161.9 56.4146 161.929 56.419 161.957C56.8958 162.152 57.3601 162.376 57.8091 162.628C58.066 162.773 58.3175 162.927 58.5636 163.09C58.8728 163.297 59.1123 163.592 59.2509 163.938C59.3895 164.283 59.4206 164.663 59.3402 165.026C59.2597 165.39 59.0715 165.72 58.8002 165.975C58.5289 166.23 58.1871 166.396 57.8196 166.453L57.782 166.459C57.7549 166.463 57.7316 166.466 57.7046 166.47C58.5193 168.418 59.6627 170.211 61.0849 171.771C62.4725 179.273 68.4324 179.984 74.8076 177.8H74.8115C75.511 180.843 76.5245 183.806 77.8356 186.64H88.6388C88.6775 186.52 88.7124 186.396 88.7472 186.275C87.7473 186.338 86.7434 186.278 85.7579 186.097C86.5595 185.112 87.361 184.12 88.1625 183.135C88.1804 183.116 88.1972 183.097 88.2128 183.077C88.6194 182.573 89.0299 182.072 89.4364 181.568L89.4366 181.568C89.4583 180.023 89.2813 178.481 88.9098 176.982L88.9095 176.981Z" fill="#CCCCCC"/>
<path d="M125.757 208.261C125.936 208.783 126.276 209.235 126.728 209.552C127.18 209.869 127.72 210.034 128.272 210.025L139.046 209.747C139.601 209.736 140.138 209.546 140.577 209.204C141.015 208.862 141.331 208.387 141.478 207.85L143.003 191.525C143.544 191.771 144.132 191.892 144.726 191.88C145.768 191.854 146.757 191.414 147.475 190.658C148.193 189.902 148.582 188.891 148.556 187.848C148.529 186.805 148.09 185.815 147.335 185.096C146.58 184.377 145.571 183.987 144.529 184.014C144.292 184.013 144.055 184.038 143.823 184.087C143.57 183.814 143.264 183.596 142.922 183.449C142.581 183.301 142.212 183.227 141.841 183.231L125.268 183.659C125.13 183.664 124.993 183.681 124.859 183.71C124.495 183.778 124.151 183.923 123.848 184.135C123.545 184.348 123.291 184.623 123.103 184.942C122.916 185.26 122.798 185.616 122.759 185.984C122.72 186.352 122.76 186.724 122.877 187.076L125.757 208.261ZM143.315 190.417L144.4 186.527C144.524 186.077 144.526 185.603 144.408 185.153C144.461 185.152 144.508 185.127 144.56 185.127C145.304 185.112 146.023 185.393 146.561 185.908C147.098 186.423 147.41 187.13 147.427 187.875C147.445 188.62 147.167 189.341 146.654 189.881C146.141 190.42 145.435 190.734 144.692 190.754C144.211 190.769 143.735 190.653 143.315 190.417V190.417Z" fill="#CCCCCC"/>
<path d="M124.859 183.71C125.212 185.732 129.182 187.153 133.955 186.906C138.344 186.703 141.933 185.16 142.591 183.331C142.347 183.259 142.094 183.225 141.841 183.231L125.268 183.659C125.13 183.664 124.993 183.681 124.859 183.71V183.71Z" fill="white"/>
<path d="M0.577003 269.565L363.423 269.714C363.576 269.714 363.723 269.653 363.831 269.545C363.939 269.436 364 269.289 364 269.136C364 268.983 363.939 268.836 363.831 268.728C363.723 268.619 363.576 268.558 363.423 268.558L0.577003 268.409C0.423972 268.409 0.27721 268.47 0.169 268.579C0.0607904 268.687 0 268.834 0 268.987C0 269.14 0.0607904 269.287 0.169 269.396C0.27721 269.504 0.423972 269.565 0.577003 269.565V269.565Z" fill="#CACACA"/>
<path d="M204.086 140.438C203.099 140.474 202.165 140.894 201.483 141.609C200.801 142.324 200.425 143.277 200.434 144.266C200.439 144.467 200.46 144.667 200.498 144.864L189.111 151.596L190.489 158.584L205.093 147.673C205.898 147.452 206.607 146.97 207.11 146.303C207.613 145.636 207.882 144.821 207.873 143.985C207.864 143.509 207.761 143.04 207.571 142.604C207.38 142.169 207.106 141.775 206.764 141.445C206.421 141.115 206.017 140.856 205.575 140.683C205.132 140.51 204.66 140.425 204.185 140.434C204.152 140.435 204.119 140.436 204.086 140.438Z" fill="#FFB6B6"/>
<path d="M194.758 156.486C194.453 156.078 194.322 155.907 194.253 155.954C194.075 156.061 194.246 157.505 192.992 160.021C191.226 163.556 172.714 168.971 172.714 168.971L170.435 164.792L160.41 146.431L156.954 131.713C156.833 131.2 156.775 130.674 156.779 130.147C159.86 127.976 163.132 126.09 166.554 124.513C167.922 125.289 168.964 126.533 169.491 128.016L176.392 147.392L179.146 155.128C179.146 155.128 184.004 151.65 185.766 152.288C187.525 152.931 188.025 152.03 186.875 149.146C185.725 146.263 187.451 149.231 189.46 149.419C191.472 149.611 189.46 149.419 190.411 148.196C191.361 146.972 197.507 146.284 197.507 146.284L197.638 146.557L200.02 151.463L200.702 152.872C200.702 152.872 198.177 155.616 197.567 156.162C196.955 156.713 196.766 156.675 197.066 157.302C197.362 157.927 195.816 157.899 194.758 156.486Z" fill="#478F9A"/>
</g>
<defs>
<clipPath id="clip0_7_745">
<rect width="364" height="270" fill="white"/>
</clipPath>
</defs>
</svg>
